运行 java测试 案例 com.example.demo.FFmpegJNITest
sbc run -t -v /home/user/JAVA-TEST/java-rtf-test/ffmpeg/files:/tmp@/home/user/JAVA-TEST/java-rtf-test/rmi.sh:/opt/app/lib/logback-classic-1.2.3.jar@/home/user/JAVA-TEST/java-rtf-test/test-classes/com:/opt/app/test-classes/com -p docker.bplatform.demo/java_rtf_lx:2.1 docker.bplatform.demo/java_rtf_test_all:1.0  /opt/app/runTest com.example.demo.FFmpegJNITest encode_video /tmp/03.yuv /tmp/04.xvid
TEST_DIR=/opt/app
/usr/lib/jvm/java-11-openjdk-mips64el/bin/java -classpath /opt/app/lib/*:/opt/app/classes:/opt/app/test-classes com.example.demo.FFmpegJNITest encode_video /tmp/03.yuv /tmp/04.xvid
OpenJDK 64-Bit Zero VM warning: You have loaded library /usr/lib/libffmpeg-jni.so which might have disabled stack guard. The VM will try to fix the stack guard now.
It's highly recommended that you fix the library with 'execstack -c <libfile>', or link it with '-z noexecstack'.
视频编码
[48;5;0m[38;5;213m[NULL @ 0x7fffe86d22e0] [0m[48;5;0m[38;5;196mUnable to find a suitable output format for '/tmp/04.xvid'
[0mCould not deduce output format from file extension: using MPEG.
Output #0, mpeg, to '/tmp/04.xvid':
    Stream #0:0: Video: mpeg1video, yuv420p, 640x480, q=2-31, 400 kb/s, 25 tbn
[48;5;0m[38;5;213m[mpeg @ 0x7fffe86d22e0] [0m[48;5;0m[38;5;226mVBV buffer size not set, using default size of 230KB
If you want the mpeg file to be compliant to some specification
Like DVD, VCD or others, make sure you set the correct buffer size
[0mpts:0 pts_time:0 dts:-3600 dts_time:-0.04 duration:0 duration_time:0 stream_index:0
pts:3600 pts_time:0.04 dts:0 dts_time:0 duration:0 duration_time:0 stream_index:0
[48;5;0m[38;5;213m[mpeg @ 0x7fffe86d22e0] [0m[48;5;0m[38;5;196mbuffer underflow st=0 bufi=26032 size=37029
[0m[48;5;0m[38;5;213m[mpeg @ 0x7fffe86d22e0] [0m[48;5;0m[38;5;196mbuffer underflow st=0 bufi=28073 size=37029
[0m[48;5;0m[38;5;213m[mpeg @ 0x7fffe86d22e0] [0m[48;5;0m[38;5;196mbuffer underflow st=0 bufi=30114 size=37029
[0m[48;5;0m[38;5;213m[mpeg @ 0x7fffe86d22e0] [0m[48;5;0m[38;5;196mbuffer underflow st=0 bufi=32155 size=37029
[0m[48;5;0m[38;5;213m[mpeg @ 0x7fffe86d22e0] [0m[48;5;0m[38;5;196mbuffer underflow st=0 bufi=34196 size=37029
[0m[48;5;0m[38;5;213m[mpeg @ 0x7fffe86d22e0] [0m[48;5;0m[38;5;196mbuffer underflow st=0 bufi=36237 size=37029
[0mpts:7200 pts_time:0.08 dts:3600 dts_time:0.04 duration:0 duration_time:0 stream_index:0
[48;5;0m[38;5;213m[mpeg @ 0x7fffe86d22e0] [0m[48;5;0m[38;5;196mbuffer underflow st=0 bufi=1240 size=8860
[0m[48;5;0m[38;5;213m[mpeg @ 0x7fffe86d22e0] [0m[48;5;0m[38;5;196mbuffer underflow st=0 bufi=3281 size=8860
[0m[48;5;0m[38;5;213m[mpeg @ 0x7fffe86d22e0] [0m[48;5;0m[38;5;196mbuffer underflow st=0 bufi=5322 size=8860
[0m[48;5;0m[38;5;213m[mpeg @ 0x7fffe86d22e0] [0m[48;5;0m[38;5;196mbuffer underflow st=0 bufi=7363 size=8860
[0mpts:10800 pts_time:0.12 dts:7200 dts_time:0.08 duration:0 duration_time:0 stream_index:0
[48;5;0m[38;5;213m[mpeg @ 0x7fffe86d22e0] [0m[48;5;0m[38;5;196mbuffer underflow st=0 bufi=535 size=8026
[0m[48;5;0m[38;5;213m[mpeg @ 0x7fffe86d22e0] [0m[48;5;0m[38;5;196mbuffer underflow st=0 bufi=2576 size=8026
[0m[48;5;0m[38;5;213m[mpeg @ 0x7fffe86d22e0] [0m[48;5;0m[38;5;196mbuffer underflow st=0 bufi=4617 size=8026
[0m[48;5;0m[38;5;213m[mpeg @ 0x7fffe86d22e0] [0m[48;5;0m[38;5;196mbuffer underflow st=0 bufi=6658 size=8026
[0mpts:14400 pts_time:0.16 dts:10800 dts_time:0.12 duration:0 duration_time:0 stream_index:0
[48;5;0m[38;5;213m[mpeg @ 0x7fffe86d22e0] [0m[48;5;0m[38;5;196mbuffer underflow st=0 bufi=664 size=6543
[0m[48;5;0m[38;5;213m[mpeg @ 0x7fffe86d22e0] [0m[48;5;0m[38;5;196mbuffer underflow st=0 bufi=2705 size=6543
[0m[48;5;0m[38;5;213m[mpeg @ 0x7fffe86d22e0] [0m[48;5;0m[38;5;196mbuffer underflow st=0 bufi=4746 size=6543
[0mpts:18000 pts_time:0.2 dts:14400 dts_time:0.16 duration:0 duration_time:0 stream_index:0
[48;5;0m[38;5;213m[mpeg @ 0x7fffe86d22e0] [0m[48;5;0m[38;5;196mbuffer underflow st=0 bufi=235 size=6999
[0m[48;5;0m[38;5;213m[mpeg @ 0x7fffe86d22e0] [0m[48;5;0m[38;5;196mbuffer underflow st=0 bufi=2276 size=6999
[0m[48;5;0m[38;5;213m[mpeg @ 0x7fffe86d22e0] [0m[48;5;0m[38;5;196mbuffer underflow st=0 bufi=4317 size=6999
[0m[48;5;0m[38;5;213m[mpeg @ 0x7fffe86d22e0] [0m[48;5;0m[38;5;196mbuffer underflow st=0 bufi=6358 size=6999
[0mpts:21600 pts_time:0.24 dts:18000 dts_time:0.2 duration:0 duration_time:0 stream_index:0
[48;5;0m[38;5;213m[mpeg @ 0x7fffe86d22e0] [0m[48;5;0m[38;5;196mbuffer underflow st=0 bufi=1391 size=6381
[0m[48;5;0m[38;5;213m[mpeg @ 0x7fffe86d22e0] [0m[48;5;0m[38;5;196mbuffer underflow st=0 bufi=3432 size=6381
[0m[48;5;0m[38;5;213m[mpeg @ 0x7fffe86d22e0] [0m[48;5;0m[38;5;196mbuffer underflow st=0 bufi=5473 size=6381
[0mpts:25200 pts_time:0.28 dts:21600 dts_time:0.24 duration:0 duration_time:0 stream_index:0
[48;5;0m[38;5;213m[mpeg @ 0x7fffe86d22e0] [0m[48;5;0m[38;5;196mbuffer underflow st=0 bufi=1124 size=5278
[0m[48;5;0m[38;5;213m[mpeg @ 0x7fffe86d22e0] [0m[48;5;0m[38;5;196mbuffer underflow st=0 bufi=3165 size=5278
[0m[48;5;0m[38;5;213m[mpeg @ 0x7fffe86d22e0] [0m[48;5;0m[38;5;196mbuffer underflow st=0 bufi=5206 size=5278
[0mpts:28800 pts_time:0.32 dts:25200 dts_time:0.28 duration:0 duration_time:0 stream_index:0
[48;5;0m[38;5;213m[mpeg @ 0x7fffe86d22e0] [0m[48;5;0m[38;5;196mbuffer underflow st=0 bufi=1960 size=4521
[0m[48;5;0m[38;5;213m[mpeg @ 0x7fffe86d22e0] [0m[48;5;0m[38;5;196mbuffer underflow st=0 bufi=4001 size=4521
[0mpts:32400 pts_time:0.36 dts:28800 dts_time:0.32 duration:0 duration_time:0 stream_index:0
[48;5;0m[38;5;213m[mpeg @ 0x7fffe86d22e0] [0m[48;5;0m[38;5;196mbuffer underflow st=0 bufi=1512 size=5093
[0m[48;5;0m[38;5;213m[mpeg @ 0x7fffe86d22e0] [0m[48;5;0m[38;5;196mbuffer underflow st=0 bufi=3553 size=5093
[0mpts:36000 pts_time:0.4 dts:32400 dts_time:0.36 duration:0 duration_time:0 stream_index:0
[48;5;0m[38;5;213m[mpeg @ 0x7fffe86d22e0] [0m[48;5;0m[38;5;196mbuffer underflow st=0 bufi=492 size=5445
[0m[48;5;0m[38;5;213m[mpeg @ 0x7fffe86d22e0] [0m[48;5;0m[38;5;196mbuffer underflow st=0 bufi=2533 size=5445
[0m[48;5;0m[38;5;213m[mpeg @ 0x7fffe86d22e0] [0m[48;5;0m[38;5;196mbuffer underflow st=0 bufi=4574 size=5445
[0mpts:39600 pts_time:0.44 dts:36000 dts_time:0.4 duration:0 duration_time:0 stream_index:0
[48;5;0m[38;5;213m[mpeg @ 0x7fffe86d22e0] [0m[48;5;0m[38;5;196mbuffer underflow st=0 bufi=1161 size=3854
[0m[48;5;0m[38;5;213m[mpeg @ 0x7fffe86d22e0] [0m[48;5;0m[38;5;196mbuffer underflow st=0 bufi=3202 size=3854
[0mpts:43200 pts_time:0.48 dts:39600 dts_time:0.44 duration:0 duration_time:0 stream_index:0
[48;5;0m[38;5;213m[mpeg @ 0x7fffe86d22e0] [0m[48;5;0m[38;5;196mbuffer underflow st=0 bufi=1380 size=4384
[0m[48;5;0m[38;5;213m[mpeg @ 0x7fffe86d22e0] [0m[48;5;0m[38;5;196mbuffer underflow st=0 bufi=3421 size=4384
[0mpts:46800 pts_time:0.52 dts:43200 dts_time:0.48 duration:0 duration_time:0 stream_index:0
[48;5;0m[38;5;213m[mpeg @ 0x7fffe86d22e0] [0m[48;5;0m[38;5;196mbuffer underflow st=0 bufi=1057 size=25160
[0m[48;5;0m[38;5;213m[mpeg @ 0x7fffe86d22e0] [0m[48;5;0m[38;5;196mbuffer underflow st=0 bufi=3098 size=25160
[0m[48;5;0m[38;5;213m[mpeg @ 0x7fffe86d22e0] [0m[48;5;0m[38;5;196mbuffer underflow st=0 bufi=5139 size=25160
[0m[48;5;0m[38;5;213m[mpeg @ 0x7fffe86d22e0] [0m[48;5;0m[38;5;196mbuffer underflow st=0 bufi=7180 size=25160
[0m[48;5;0m[38;5;213m[mpeg @ 0x7fffe86d22e0] [0m[48;5;0m[38;5;196mbuffer underflow st=0 bufi=9221 size=25160
[0m[48;5;0m[38;5;213m[mpeg @ 0x7fffe86d22e0] [0m[48;5;0m[38;5;196mbuffer underflow st=0 bufi=11262 size=25160
[0m[48;5;0m[38;5;213m[mpeg @ 0x7fffe86d22e0] [0m[48;5;0m[38;5;196mbuffer underflow st=0 bufi=13303 size=25160
[0m[48;5;0m[38;5;213m[mpeg @ 0x7fffe86d22e0] [0m[48;5;0m[38;5;196mbuffer underflow st=0 bufi=15344 size=25160
[0m[48;5;0m[38;5;213m[mpeg @ 0x7fffe86d22e0] [0m[48;5;0m[38;5;196mbuffer underflow st=0 bufi=17385 size=25160
[0m[48;5;0m[38;5;213m[mpeg @ 0x7fffe86d22e0] [0m[48;5;0m[38;5;196mbuffer underflow st=0 bufi=19426 size=25160
[0m[48;5;0m[38;5;213m[mpeg @ 0x7fffe86d22e0] [0m[48;5;0m[38;5;196mbuffer underflow st=0 bufi=21467 size=25160
[0m[48;5;0m[38;5;213m[mpeg @ 0x7fffe86d22e0] [0m[48;5;0m[38;5;196mbuffer underflow st=0 bufi=23508 size=25160
[0mpts:50400 pts_time:0.56 dts:46800 dts_time:0.52 duration:0 duration_time:0 stream_index:0
[48;5;0m[38;5;213m[mpeg @ 0x7fffe86d22e0] [0m[48;5;0m[38;5;196mbuffer underflow st=0 bufi=380 size=3797
[0m[48;5;0m[38;5;213m[mpeg @ 0x7fffe86d22e0] [0m[48;5;0m[38;5;196mbuffer underflow st=0 bufi=2421 size=3797
[0mpts:54000 pts_time:0.6 dts:50400 dts_time:0.56 duration:0 duration_time:0 stream_index:0
[48;5;0m[38;5;213m[mpeg @ 0x7fffe86d22e0] [0m[48;5;0m[38;5;196mbuffer underflow st=0 bufi=656 size=4088
[0m[48;5;0m[38;5;213m[mpeg @ 0x7fffe86d22e0] [0m[48;5;0m[38;5;196mbuffer underflow st=0 bufi=2697 size=4088
[0mpts:57600 pts_time:0.64 dts:54000 dts_time:0.6 duration:0 duration_time:0 stream_index:0
[48;5;0m[38;5;213m[mpeg @ 0x7fffe86d22e0] [0m[48;5;0m[38;5;196mbuffer underflow st=0 bufi=641 size=3323
[0m[48;5;0m[38;5;213m[mpeg @ 0x7fffe86d22e0] [0m[48;5;0m[38;5;196mbuffer underflow st=0 bufi=2682 size=3323
[0mpts:61200 pts_time:0.68 dts:57600 dts_time:0.64 duration:0 duration_time:0 stream_index:0
[48;5;0m[38;5;213m[mpeg @ 0x7fffe86d22e0] [0m[48;5;0m[38;5;196mbuffer underflow st=0 bufi=1391 size=2233
[0mpts:64800 pts_time:0.72 dts:61200 dts_time:0.68 duration:0 duration_time:0 stream_index:0
[48;5;0m[38;5;213m[mpeg @ 0x7fffe86d22e0] [0m[48;5;0m[38;5;196mbuffer underflow st=0 bufi=1190 size=4130
[0m[48;5;0m[38;5;213m[mpeg @ 0x7fffe86d22e0] [0m[48;5;0m[38;5;196mbuffer underflow st=0 bufi=3231 size=4130
[0mpts:68400 pts_time:0.76 dts:64800 dts_time:0.72 duration:0 duration_time:0 stream_index:0
[48;5;0m[38;5;213m[mpeg @ 0x7fffe86d22e0] [0m[48;5;0m[38;5;196mbuffer underflow st=0 bufi=1133 size=2330
[0mpts:72000 pts_time:0.8 dts:68400 dts_time:0.76 duration:0 duration_time:0 stream_index:0
[48;5;0m[38;5;213m[mpeg @ 0x7fffe86d22e0] [0m[48;5;0m[38;5;196mbuffer underflow st=0 bufi=835 size=3973
[0m[48;5;0m[38;5;213m[mpeg @ 0x7fffe86d22e0] [0m[48;5;0m[38;5;196mbuffer underflow st=0 bufi=2876 size=3973
[0mpts:75600 pts_time:0.84 dts:72000 dts_time:0.8 duration:0 duration_time:0 stream_index:0
[48;5;0m[38;5;213m[mpeg @ 0x7fffe86d22e0] [0m[48;5;0m[38;5;196mbuffer underflow st=0 bufi=935 size=2748
[0mpts:79200 pts_time:0.88 dts:75600 dts_time:0.84 duration:0 duration_time:0 stream_index:0
[48;5;0m[38;5;213m[mpeg @ 0x7fffe86d22e0] [0m[48;5;0m[38;5;196mbuffer underflow st=0 bufi=219 size=2999
[0m[48;5;0m[38;5;213m[mpeg @ 0x7fffe86d22e0] [0m[48;5;0m[38;5;196mbuffer underflow st=0 bufi=2260 size=2999
[0mpts:82800 pts_time:0.92 dts:79200 dts_time:0.88 duration:0 duration_time:0 stream_index:0
[48;5;0m[38;5;213m[mpeg @ 0x7fffe86d22e0] [0m[48;5;0m[38;5;196mbuffer underflow st=0 bufi=1293 size=3731
[0m[48;5;0m[38;5;213m[mpeg @ 0x7fffe86d22e0] [0m[48;5;0m[38;5;196mbuffer underflow st=0 bufi=3334 size=3731
[0mpts:86400 pts_time:0.96 dts:82800 dts_time:0.92 duration:0 duration_time:0 stream_index:0
[48;5;0m[38;5;213m[mpeg @ 0x7fffe86d22e0] [0m[48;5;0m[38;5;196mbuffer underflow st=0 bufi=1635 size=2428
[0mpts:90000 pts_time:1 dts:86400 dts_time:0.96 duration:0 duration_time:0 stream_index:0
[48;5;0m[38;5;213m[mpeg @ 0x7fffe86d22e0] [0m[48;5;0m[38;5;196mbuffer underflow st=0 bufi=1239 size=17306
[0m[48;5;0m[38;5;213m[mpeg @ 0x7fffe86d22e0] [0m[48;5;0m[38;5;196mbuffer underflow st=0 bufi=3280 size=17306
[0m[48;5;0m[38;5;213m[mpeg @ 0x7fffe86d22e0] [0m[48;5;0m[38;5;196mbuffer underflow st=0 bufi=5321 size=17306
[0m[48;5;0m[38;5;213m[mpeg @ 0x7fffe86d22e0] [0m[48;5;0m[38;5;196mbuffer underflow st=0 bufi=7362 size=17306
[0m[48;5;0m[38;5;213m[mpeg @ 0x7fffe86d22e0] [0m[48;5;0m[38;5;196mbuffer underflow st=0 bufi=9403 size=17306
[0m[48;5;0m[38;5;213m[mpeg @ 0x7fffe86d22e0] [0m[48;5;0m[38;5;196mbuffer underflow st=0 bufi=11444 size=17306
[0m[48;5;0m[38;5;213m[mpeg @ 0x7fffe86d22e0] [0m[48;5;0m[38;5;196mbuffer underflow st=0 bufi=13485 size=17306
[0m[48;5;0m[38;5;213m[mpeg @ 0x7fffe86d22e0] [0m[48;5;0m[38;5;196mbuffer underflow st=0 bufi=15526 size=17306
[0mpts:93600 pts_time:1.04 dts:90000 dts_time:1 duration:0 duration_time:0 stream_index:0
[48;5;0m[38;5;213m[mpeg @ 0x7fffe86d22e0] [0m[48;5;0m[38;5;196mbuffer underflow st=0 bufi=252 size=3753
[0m[48;5;0m[38;5;213m[mpeg @ 0x7fffe86d22e0] [0m[48;5;0m[38;5;196mbuffer underflow st=0 bufi=2293 size=3753
[0mpts:97200 pts_time:1.08 dts:93600 dts_time:1.04 duration:0 duration_time:0 stream_index:0
[48;5;0m[38;5;213m[mpeg @ 0x7fffe86d22e0] [0m[48;5;0m[38;5;196mbuffer underflow st=0 bufi=572 size=2727
[0m[48;5;0m[38;5;213m[mpeg @ 0x7fffe86d22e0] [0m[48;5;0m[38;5;196mbuffer underflow st=0 bufi=2613 size=2727
[0mpts:100800 pts_time:1.12 dts:97200 dts_time:1.08 duration:0 duration_time:0 stream_index:0
[48;5;0m[38;5;213m[mpeg @ 0x7fffe86d22e0] [0m[48;5;0m[38;5;196mbuffer underflow st=0 bufi=1918 size=3200
[0mpts:104400 pts_time:1.16 dts:100800 dts_time:1.12 duration:0 duration_time:0 stream_index:0
[48;5;0m[38;5;213m[mpeg @ 0x7fffe86d22e0] [0m[48;5;0m[38;5;196mbuffer underflow st=0 bufi=750 size=3823
[0m[48;5;0m[38;5;213m[mpeg @ 0x7fffe86d22e0] [0m[48;5;0m[38;5;196mbuffer underflow st=0 bufi=2791 size=3823
[0mpts:108000 pts_time:1.2 dts:104400 dts_time:1.16 duration:0 duration_time:0 stream_index:0
[48;5;0m[38;5;213m[mpeg @ 0x7fffe86d22e0] [0m[48;5;0m[38;5;196mbuffer underflow st=0 bufi=1000 size=2416
[0mpts:111600 pts_time:1.24 dts:108000 dts_time:1.2 duration:0 duration_time:0 stream_index:0
[48;5;0m[38;5;213m[mpeg @ 0x7fffe86d22e0] [0m[48;5;0m[38;5;196mbuffer underflow st=0 bufi=616 size=3680
[0m[48;5;0m[38;5;213m[mpeg @ 0x7fffe86d22e0] [0m[48;5;0m[38;5;196mbuffer underflow st=0 bufi=2657 size=3680
[0mpts:115200 pts_time:1.28 dts:111600 dts_time:1.24 duration:0 duration_time:0 stream_index:0
[48;5;0m[38;5;213m[mpeg @ 0x7fffe86d22e0] [0m[48;5;0m[38;5;196mbuffer underflow st=0 bufi=1009 size=1979
[0mpts:118800 pts_time:1.32 dts:115200 dts_time:1.28 duration:0 duration_time:0 stream_index:0
[48;5;0m[38;5;213m[mpeg @ 0x7fffe86d22e0] [0m[48;5;0m[38;5;196mbuffer underflow st=0 bufi=1062 size=2741
[0mpts:122400 pts_time:1.36 dts:118800 dts_time:1.32 duration:0 duration_time:0 stream_index:0
[48;5;0m[38;5;213m[mpeg @ 0x7fffe86d22e0] [0m[48;5;0m[38;5;196mbuffer underflow st=0 bufi=353 size=2952
[0m[48;5;0m[38;5;213m[mpeg @ 0x7fffe86d22e0] [0m[48;5;0m[38;5;196mbuffer underflow st=0 bufi=2394 size=2952
[0mpts:126000 pts_time:1.4 dts:122400 dts_time:1.36 duration:0 duration_time:0 stream_index:0
[48;5;0m[38;5;213m[mpeg @ 0x7fffe86d22e0] [0m[48;5;0m[38;5;196mbuffer underflow st=0 bufi=1462 size=3454
[0mpts:129600 pts_time:1.44 dts:126000 dts_time:1.4 duration:0 duration_time:0 stream_index:0
[48;5;0m[38;5;213m[mpeg @ 0x7fffe86d22e0] [0m[48;5;0m[38;5;196mbuffer underflow st=0 bufi=40 size=2239
[0m[48;5;0m[38;5;213m[mpeg @ 0x7fffe86d22e0] [0m[48;5;0m[38;5;196mbuffer underflow st=0 bufi=2081 size=2239
[0mpts:133200 pts_time:1.48 dts:129600 dts_time:1.44 duration:0 duration_time:0 stream_index:0
[48;5;0m[38;5;213m[mpeg @ 0x7fffe86d22e0] [0m[48;5;0m[38;5;196mbuffer underflow st=0 bufi=1874 size=10446
[0m[48;5;0m[38;5;213m[mpeg @ 0x7fffe86d22e0] [0m[48;5;0m[38;5;196mbuffer underflow st=0 bufi=3915 size=10446
[0m[48;5;0m[38;5;213m[mpeg @ 0x7fffe86d22e0] [0m[48;5;0m[38;5;196mbuffer underflow st=0 bufi=5956 size=10446
[0m[48;5;0m[38;5;213m[mpeg @ 0x7fffe86d22e0] [0m[48;5;0m[38;5;196mbuffer underflow st=0 bufi=7997 size=10446
[0m[48;5;0m[38;5;213m[mpeg @ 0x7fffe86d22e0] [0m[48;5;0m[38;5;196mbuffer underflow st=0 bufi=10038 size=10446
[0mpts:136800 pts_time:1.52 dts:133200 dts_time:1.48 duration:0 duration_time:0 stream_index:0
[48;5;0m[38;5;213m[mpeg @ 0x7fffe86d22e0] [0m[48;5;0m[38;5;196mbuffer underflow st=0 bufi=1624 size=3006
[0mpts:140400 pts_time:1.56 dts:136800 dts_time:1.52 duration:0 duration_time:0 stream_index:0
[48;5;0m[38;5;213m[mpeg @ 0x7fffe86d22e0] [0m[48;5;0m[38;5;196mbuffer underflow st=0 bufi=650 size=2304
[0mpts:144000 pts_time:1.6 dts:140400 dts_time:1.56 duration:0 duration_time:0 stream_index:0
[48;5;0m[38;5;213m[mpeg @ 0x7fffe86d22e0] [0m[48;5;0m[38;5;196mbuffer underflow st=0 bufi=378 size=2700
[0m[48;5;0m[38;5;213m[mpeg @ 0x7fffe86d22e0] [0m[48;5;0m[38;5;196mbuffer underflow st=0 bufi=2419 size=2700
[0mpts:147600 pts_time:1.64 dts:144000 dts_time:1.6 duration:0 duration_time:0 stream_index:0
pts:151200 pts_time:1.68 dts:147600 dts_time:1.64 duration:0 duration_time:0 stream_index:0
[48;5;0m[38;5;213m[mpeg @ 0x7fffe86d22e0] [0m[48;5;0m[38;5;196mbuffer underflow st=0 bufi=88 size=1985
[0mpts:154800 pts_time:1.72 dts:151200 dts_time:1.68 duration:0 duration_time:0 stream_index:0
[48;5;0m[38;5;213m[mpeg @ 0x7fffe86d22e0] [0m[48;5;0m[38;5;196mbuffer underflow st=0 bufi=135 size=2611
[0m[48;5;0m[38;5;213m[mpeg @ 0x7fffe86d22e0] [0m[48;5;0m[38;5;196mbuffer underflow st=0 bufi=2176 size=2611
[0mpts:158400 pts_time:1.76 dts:154800 dts_time:1.72 duration:0 duration_time:0 stream_index:0
[48;5;0m[38;5;213m[mpeg @ 0x7fffe86d22e0] [0m[48;5;0m[38;5;196mbuffer underflow st=0 bufi=1597 size=1719
[0mpts:162000 pts_time:1.8 dts:158400 dts_time:1.76 duration:0 duration_time:0 stream_index:0
[48;5;0m[38;5;213m[mpeg @ 0x7fffe86d22e0] [0m[48;5;0m[38;5;196mbuffer underflow st=0 bufi=1910 size=2483
[0mpts:165600 pts_time:1.84 dts:162000 dts_time:1.8 duration:0 duration_time:0 stream_index:0
[48;5;0m[38;5;213m[mpeg @ 0x7fffe86d22e0] [0m[48;5;0m[38;5;196mbuffer underflow st=0 bufi=1459 size=1805
[0mpts:169200 pts_time:1.88 dts:165600 dts_time:1.84 duration:0 duration_time:0 stream_index:0
[48;5;0m[38;5;213m[mpeg @ 0x7fffe86d22e0] [0m[48;5;0m[38;5;196mbuffer underflow st=0 bufi=1686 size=2613
[0mpts:172800 pts_time:1.92 dts:169200 dts_time:1.88 duration:0 duration_time:0 stream_index:0
[48;5;0m[38;5;213m[mpeg @ 0x7fffe86d22e0] [0m[48;5;0m[38;5;196mbuffer underflow st=0 bufi=1105 size=1752
[0mpts:176400 pts_time:1.96 dts:172800 dts_time:1.92 duration:0 duration_time:0 stream_index:0
[48;5;0m[38;5;213m[mpeg @ 0x7fffe86d22e0] [0m[48;5;0m[38;5;196mbuffer underflow st=0 bufi=1385 size=10460
[0m[48;5;0m[38;5;213m[mpeg @ 0x7fffe86d22e0] [0m[48;5;0m[38;5;196mbuffer underflow st=0 bufi=3426 size=10460
[0m[48;5;0m[38;5;213m[mpeg @ 0x7fffe86d22e0] [0m[48;5;0m[38;5;196mbuffer underflow st=0 bufi=5467 size=10460
[0m[48;5;0m[38;5;213m[mpeg @ 0x7fffe86d22e0] [0m[48;5;0m[38;5;196mbuffer underflow st=0 bufi=7508 size=10460
[0m[48;5;0m[38;5;213m[mpeg @ 0x7fffe86d22e0] [0m[48;5;0m[38;5;196mbuffer underflow st=0 bufi=9549 size=10460
[0mpts:180000 pts_time:2 dts:176400 dts_time:1.96 duration:0 duration_time:0 stream_index:0
[48;5;0m[38;5;213m[mpeg @ 0x7fffe86d22e0] [0m[48;5;0m[38;5;196mbuffer underflow st=0 bufi=1121 size=2724
[0mpts:183600 pts_time:2.04 dts:180000 dts_time:2 duration:0 duration_time:0 stream_index:0
[48;5;0m[38;5;213m[mpeg @ 0x7fffe86d22e0] [0m[48;5;0m[38;5;196mbuffer underflow st=0 bufi=429 size=1854
[0mpts:187200 pts_time:2.08 dts:183600 dts_time:2.04 duration:0 duration_time:0 stream_index:0
[48;5;0m[38;5;213m[mpeg @ 0x7fffe86d22e0] [0m[48;5;0m[38;5;196mbuffer underflow st=0 bufi=607 size=2572
[0mpts:190800 pts_time:2.12 dts:187200 dts_time:2.08 duration:0 duration_time:0 stream_index:0
[48;5;0m[38;5;213m[mpeg @ 0x7fffe86d22e0] [0m[48;5;0m[38;5;196mbuffer underflow st=0 bufi=67 size=2470
[0m[48;5;0m[38;5;213m[mpeg @ 0x7fffe86d22e0] [0m[48;5;0m[38;5;196mbuffer underflow st=0 bufi=2108 size=2470
[0mpts:194400 pts_time:2.16 dts:190800 dts_time:2.12 duration:0 duration_time:0 stream_index:0
[48;5;0m[38;5;213m[mpeg @ 0x7fffe86d22e0] [0m[48;5;0m[38;5;196mbuffer underflow st=0 bufi=1670 size=1689
[0mpts:198000 pts_time:2.2 dts:194400 dts_time:2.16 duration:0 duration_time:0 stream_index:0
[48;5;0m[38;5;213m[mpeg @ 0x7fffe86d22e0] [0m[48;5;0m[38;5;196mbuffer underflow st=0 bufi=2013 size=2870
[0mpts:201600 pts_time:2.24 dts:198000 dts_time:2.2 duration:0 duration_time:0 stream_index:0
[48;5;0m[38;5;213m[mpeg @ 0x7fffe86d22e0] [0m[48;5;0m[38;5;196mbuffer underflow st=0 bufi=1175 size=1794
[0mpts:205200 pts_time:2.28 dts:201600 dts_time:2.24 duration:0 duration_time:0 stream_index:0
[48;5;0m[38;5;213m[mpeg @ 0x7fffe86d22e0] [0m[48;5;0m[38;5;196mbuffer underflow st=0 bufi=1413 size=2473
[0mpts:208800 pts_time:2.32 dts:205200 dts_time:2.28 duration:0 duration_time:0 stream_index:0
[48;5;0m[38;5;213m[mpeg @ 0x7fffe86d22e0] [0m[48;5;0m[38;5;196mbuffer underflow st=0 bufi=972 size=2117
[0mpts:212400 pts_time:2.36 dts:208800 dts_time:2.32 duration:0 duration_time:0 stream_index:0
[48;5;0m[38;5;213m[mpeg @ 0x7fffe86d22e0] [0m[48;5;0m[38;5;196mbuffer underflow st=0 bufi=887 size=2471
[0mpts:216000 pts_time:2.4 dts:212400 dts_time:2.36 duration:0 duration_time:0 stream_index:0
[48;5;0m[38;5;213m[mpeg @ 0x7fffe86d22e0] [0m[48;5;0m[38;5;196mbuffer underflow st=0 bufi=448 size=2008
[0mpts:219600 pts_time:2.44 dts:216000 dts_time:2.4 duration:0 duration_time:0 stream_index:0
[48;5;0m[38;5;213m[mpeg @ 0x7fffe86d22e0] [0m[48;5;0m[38;5;196mbuffer underflow st=0 bufi=472 size=9922
[0m[48;5;0m[38;5;213m[mpeg @ 0x7fffe86d22e0] [0m[48;5;0m[38;5;196mbuffer underflow st=0 bufi=2513 size=9922
[0m[48;5;0m[38;5;213m[mpeg @ 0x7fffe86d22e0] [0m[48;5;0m[38;5;196mbuffer underflow st=0 bufi=4554 size=9922
[0m[48;5;0m[38;5;213m[mpeg @ 0x7fffe86d22e0] [0m[48;5;0m[38;5;196mbuffer underflow st=0 bufi=6595 size=9922
[0m[48;5;0m[38;5;213m[mpeg @ 0x7fffe86d22e0] [0m[48;5;0m[38;5;196mbuffer underflow st=0 bufi=8636 size=9922
[0mpts:223200 pts_time:2.48 dts:219600 dts_time:2.44 duration:0 duration_time:0 stream_index:0
[48;5;0m[38;5;213m[mpeg @ 0x7fffe86d22e0] [0m[48;5;0m[38;5;196mbuffer underflow st=0 bufi=746 size=2684
[0mpts:226800 pts_time:2.52 dts:223200 dts_time:2.48 duration:0 duration_time:0 stream_index:0
[48;5;0m[38;5;213m[mpeg @ 0x7fffe86d22e0] [0m[48;5;0m[38;5;196mbuffer underflow st=0 bufi=94 size=2031
[0mpts:230400 pts_time:2.56 dts:226800 dts_time:2.52 duration:0 duration_time:0 stream_index:0
[48;5;0m[38;5;213m[mpeg @ 0x7fffe86d22e0] [0m[48;5;0m[38;5;196mbuffer underflow st=0 bufi=95 size=2634
[0m[48;5;0m[38;5;213m[mpeg @ 0x7fffe86d22e0] [0m[48;5;0m[38;5;196mbuffer underflow st=0 bufi=2136 size=2634
[0mpts:234000 pts_time:2.6 dts:230400 dts_time:2.56 duration:0 duration_time:0 stream_index:0
[48;5;0m[38;5;213m[mpeg @ 0x7fffe86d22e0] [0m[48;5;0m[38;5;196mbuffer underflow st=0 bufi=1534 size=1597
[0mpts:237600 pts_time:2.64 dts:234000 dts_time:2.6 duration:0 duration_time:0 stream_index:0
pts:241200 pts_time:2.68 dts:237600 dts_time:2.64 duration:0 duration_time:0 stream_index:0
[48;5;0m[38;5;213m[mpeg @ 0x7fffe86d22e0] [0m[48;5;0m[38;5;196mbuffer underflow st=0 bufi=227 size=2232
[0mpts:244800 pts_time:2.72 dts:241200 dts_time:2.68 duration:0 duration_time:0 stream_index:0
[48;5;0m[38;5;213m[mpeg @ 0x7fffe86d22e0] [0m[48;5;0m[38;5;196mbuffer underflow st=0 bufi=27 size=1693
[0mpts:248400 pts_time:2.76 dts:244800 dts_time:2.72 duration:0 duration_time:0 stream_index:0
[48;5;0m[38;5;213m[mpeg @ 0x7fffe86d22e0] [0m[48;5;0m[38;5;196mbuffer underflow st=0 bufi=366 size=2217
[0mpts:252000 pts_time:2.8 dts:248400 dts_time:2.76 duration:0 duration_time:0 stream_index:0
[48;5;0m[38;5;213m[mpeg @ 0x7fffe86d22e0] [0m[48;5;0m[38;5;196mbuffer underflow st=0 bufi=181 size=1564
[0mpts:255600 pts_time:2.84 dts:252000 dts_time:2.8 duration:0 duration_time:0 stream_index:0
[48;5;0m[38;5;213m[mpeg @ 0x7fffe86d22e0] [0m[48;5;0m[38;5;196mbuffer underflow st=0 bufi=649 size=2240
[0mpts:259200 pts_time:2.88 dts:255600 dts_time:2.84 duration:0 duration_time:0 stream_index:0
[48;5;0m[38;5;213m[mpeg @ 0x7fffe86d22e0] [0m[48;5;0m[38;5;196mbuffer underflow st=0 bufi=429 size=1557
[0mpts:262800 pts_time:2.92 dts:259200 dts_time:2.88 duration:0 duration_time:0 stream_index:0
[48;5;0m[38;5;213m[mpeg @ 0x7fffe86d22e0] [0m[48;5;0m[38;5;196mbuffer underflow st=0 bufi=904 size=10425
[0m[48;5;0m[38;5;213m[mpeg @ 0x7fffe86d22e0] [0m[48;5;0m[38;5;196mbuffer underflow st=0 bufi=2945 size=10425
[0m[48;5;0m[38;5;213m[mpeg @ 0x7fffe86d22e0] [0m[48;5;0m[38;5;196mbuffer underflow st=0 bufi=4986 size=10425
[0m[48;5;0m[38;5;213m[mpeg @ 0x7fffe86d22e0] [0m[48;5;0m[38;5;196mbuffer underflow st=0 bufi=7027 size=10425
[0m[48;5;0m[38;5;213m[mpeg @ 0x7fffe86d22e0] [0m[48;5;0m[38;5;196mbuffer underflow st=0 bufi=9068 size=10425
[0mpts:266400 pts_time:2.96 dts:262800 dts_time:2.92 duration:0 duration_time:0 stream_index:0
[48;5;0m[38;5;213m[mpeg @ 0x7fffe86d22e0] [0m[48;5;0m[38;5;196mbuffer underflow st=0 bufi=675 size=2741
[0m[48;5;0m[38;5;213m[mpeg @ 0x7fffe86d22e0] [0m[48;5;0m[38;5;196mbuffer underflow st=0 bufi=2716 size=2741
[0mpts:270000 pts_time:3 dts:266400 dts_time:2.96 duration:0 duration_time:0 stream_index:0
pts:273600 pts_time:3.04 dts:270000 dts_time:3 duration:0 duration_time:0 stream_index:0
[48;5;0m[38;5;213m[mpeg @ 0x7fffe86d22e0] [0m[48;5;0m[38;5;196mbuffer underflow st=0 bufi=247 size=2719
[0m[48;5;0m[38;5;213m[mpeg @ 0x7fffe86d22e0] [0m[48;5;0m[38;5;196mbuffer underflow st=0 bufi=2288 size=2719
[0mpts:277200 pts_time:3.08 dts:273600 dts_time:3.04 duration:0 duration_time:0 stream_index:0
[48;5;0m[38;5;213m[mpeg @ 0x7fffe86d22e0] [0m[48;5;0m[38;5;196mbuffer underflow st=0 bufi=1601 size=2271
[0mpts:280800 pts_time:3.12 dts:277200 dts_time:3.08 duration:0 duration_time:0 stream_index:0
[48;5;0m[38;5;213m[mpeg @ 0x7fffe86d22e0] [0m[48;5;0m[38;5;196mbuffer underflow st=0 bufi=1362 size=2898
[0mpts:284400 pts_time:3.16 dts:280800 dts_time:3.12 duration:0 duration_time:0 stream_index:0
[48;5;0m[38;5;213m[mpeg @ 0x7fffe86d22e0] [0m[48;5;0m[38;5;196mbuffer underflow st=0 bufi=496 size=2734
[0m[48;5;0m[38;5;213m[mpeg @ 0x7fffe86d22e0] [0m[48;5;0m[38;5;196mbuffer underflow st=0 bufi=2537 size=2734
[0mpts:288000 pts_time:3.2 dts:284400 dts_time:3.16 duration:0 duration_time:0 stream_index:0
pts:291600 pts_time:3.24 dts:288000 dts_time:3.2 duration:0 duration_time:0 stream_index:0
[48;5;0m[38;5;213m[mpeg @ 0x7fffe86d22e0] [0m[48;5;0m[38;5;196mbuffer underflow st=0 bufi=27 size=2737
[0m[48;5;0m[38;5;213m[mpeg @ 0x7fffe86d22e0] [0m[48;5;0m[38;5;196mbuffer underflow st=0 bufi=2068 size=2737
[0mpts:295200 pts_time:3.28 dts:291600 dts_time:3.24 duration:0 duration_time:0 stream_index:0
[48;5;0m[38;5;213m[mpeg @ 0x7fffe86d22e0] [0m[48;5;0m[38;5;196mbuffer underflow st=0 bufi=1363 size=2658
[0mpts:298800 pts_time:3.32 dts:295200 dts_time:3.28 duration:0 duration_time:0 stream_index:0
[48;5;0m[38;5;213m[mpeg @ 0x7fffe86d22e0] [0m[48;5;0m[38;5;196mbuffer underflow st=0 bufi=737 size=2597
[0mpts:302400 pts_time:3.36 dts:298800 dts_time:3.32 duration:0 duration_time:0 stream_index:0
[48;5;0m[38;5;213m[mpeg @ 0x7fffe86d22e0] [0m[48;5;0m[38;5;196mbuffer underflow st=0 bufi=172 size=2513
[0m[48;5;0m[38;5;213m[mpeg @ 0x7fffe86d22e0] [0m[48;5;0m[38;5;196mbuffer underflow st=0 bufi=2213 size=2513
[0mpts:306000 pts_time:3.4 dts:302400 dts_time:3.36 duration:0 duration_time:0 stream_index:0
[48;5;0m[38;5;213m[mpeg @ 0x7fffe86d22e0] [0m[48;5;0m[38;5;196mbuffer underflow st=0 bufi=1732 size=10263
[0m[48;5;0m[38;5;213m[mpeg @ 0x7fffe86d22e0] [0m[48;5;0m[38;5;196mbuffer underflow st=0 bufi=3773 size=10263
[0m[48;5;0m[38;5;213m[mpeg @ 0x7fffe86d22e0] [0m[48;5;0m[38;5;196mbuffer underflow st=0 bufi=5814 size=10263
[0m[48;5;0m[38;5;213m[mpeg @ 0x7fffe86d22e0] [0m[48;5;0m[38;5;196mbuffer underflow st=0 bufi=7855 size=10263
[0m[48;5;0m[38;5;213m[mpeg @ 0x7fffe86d22e0] [0m[48;5;0m[38;5;196mbuffer underflow st=0 bufi=9896 size=10263
[0mpts:309600 pts_time:3.44 dts:306000 dts_time:3.4 duration:0 duration_time:0 stream_index:0
[48;5;0m[38;5;213m[mpeg @ 0x7fffe86d22e0] [0m[48;5;0m[38;5;196mbuffer underflow st=0 bufi=1665 size=2965
[0mpts:313200 pts_time:3.48 dts:309600 dts_time:3.44 duration:0 duration_time:0 stream_index:0
[48;5;0m[38;5;213m[mpeg @ 0x7fffe86d22e0] [0m[48;5;0m[38;5;196mbuffer underflow st=0 bufi=732 size=2625
[0mpts:316800 pts_time:3.52 dts:313200 dts_time:3.48 duration:0 duration_time:0 stream_index:0
[48;5;0m[38;5;213m[mpeg @ 0x7fffe86d22e0] [0m[48;5;0m[38;5;196mbuffer underflow st=0 bufi=139 size=2884
[0m[48;5;0m[38;5;213m[mpeg @ 0x7fffe86d22e0] [0m[48;5;0m[38;5;196mbuffer underflow st=0 bufi=2180 size=2884
[0mpts:320400 pts_time:3.56 dts:316800 dts_time:3.52 duration:0 duration_time:0 stream_index:0
[48;5;0m[38;5;213m[mpeg @ 0x7fffe86d22e0] [0m[48;5;0m[38;5;196mbuffer underflow st=0 bufi=1328 size=2001
[0mpts:324000 pts_time:3.6 dts:320400 dts_time:3.56 duration:0 duration_time:0 stream_index:0
[48;5;0m[38;5;213m[mpeg @ 0x7fffe86d22e0] [0m[48;5;0m[38;5;196mbuffer underflow st=0 bufi=1359 size=2544
[0mpts:327600 pts_time:3.64 dts:324000 dts_time:3.6 duration:0 duration_time:0 stream_index:0
[48;5;0m[38;5;213m[mpeg @ 0x7fffe86d22e0] [0m[48;5;0m[38;5;196mbuffer underflow st=0 bufi=847 size=1939
[0mpts:331200 pts_time:3.68 dts:327600 dts_time:3.64 duration:0 duration_time:0 stream_index:0
[48;5;0m[38;5;213m[mpeg @ 0x7fffe86d22e0] [0m[48;5;0m[38;5;196mbuffer underflow st=0 bufi=940 size=1787
[0mpts:334800 pts_time:3.72 dts:331200 dts_time:3.68 duration:0 duration_time:0 stream_index:0
[48;5;0m[38;5;213m[mpeg @ 0x7fffe86d22e0] [0m[48;5;0m[38;5;196mbuffer underflow st=0 bufi=1185 size=2770
[0mpts:338400 pts_time:3.76 dts:334800 dts_time:3.72 duration:0 duration_time:0 stream_index:0
[48;5;0m[38;5;213m[mpeg @ 0x7fffe86d22e0] [0m[48;5;0m[38;5;196mbuffer underflow st=0 bufi=447 size=1822
[0mpts:342000 pts_time:3.8 dts:338400 dts_time:3.76 duration:0 duration_time:0 stream_index:0
[48;5;0m[38;5;213m[mpeg @ 0x7fffe86d22e0] [0m[48;5;0m[38;5;196mbuffer underflow st=0 bufi=657 size=2527
[0mpts:345600 pts_time:3.84 dts:342000 dts_time:3.8 duration:0 duration_time:0 stream_index:0
[48;5;0m[38;5;213m[mpeg @ 0x7fffe86d22e0] [0m[48;5;0m[38;5;196mbuffer underflow st=0 bufi=162 size=1938
[0mpts:349200 pts_time:3.88 dts:345600 dts_time:3.84 duration:0 duration_time:0 stream_index:0
[48;5;0m[38;5;213m[mpeg @ 0x7fffe86d22e0] [0m[48;5;0m[38;5;196mbuffer underflow st=0 bufi=256 size=10509
[0m[48;5;0m[38;5;213m[mpeg @ 0x7fffe86d22e0] [0m[48;5;0m[38;5;196mbuffer underflow st=0 bufi=2297 size=10509
[0m[48;5;0m[38;5;213m[mpeg @ 0x7fffe86d22e0] [0m[48;5;0m[38;5;196mbuffer underflow st=0 bufi=4338 size=10509
[0m[48;5;0m[38;5;213m[mpeg @ 0x7fffe86d22e0] [0m[48;5;0m[38;5;196mbuffer underflow st=0 bufi=6379 size=10509
[0m[48;5;0m[38;5;213m[mpeg @ 0x7fffe86d22e0] [0m[48;5;0m[38;5;196mbuffer underflow st=0 bufi=8420 size=10509
[0m[48;5;0m[38;5;213m[mpeg @ 0x7fffe86d22e0] [0m[48;5;0m[38;5;196mbuffer underflow st=0 bufi=10461 size=10509
[0mpts:352800 pts_time:3.92 dts:349200 dts_time:3.88 duration:0 duration_time:0 stream_index:0
[48;5;0m[38;5;213m[mpeg @ 0x7fffe86d22e0] [0m[48;5;0m[38;5;196mbuffer underflow st=0 bufi=1984 size=2736
[0mpts:356400 pts_time:3.96 dts:352800 dts_time:3.92 duration:0 duration_time:0 stream_index:0
[48;5;0m[38;5;213m[mpeg @ 0x7fffe86d22e0] [0m[48;5;0m[38;5;196mbuffer underflow st=0 bufi=1280 size=1855
[0mpts:360000 pts_time:4 dts:356400 dts_time:3.96 duration:0 duration_time:0 stream_index:0
[48;5;0m[38;5;213m[mpeg @ 0x7fffe86d22e0] [0m[48;5;0m[38;5;196mbuffer underflow st=0 bufi=1457 size=2624
[0mpts:363600 pts_time:4.04 dts:360000 dts_time:4 duration:0 duration_time:0 stream_index:0
[48;5;0m[38;5;213m[mpeg @ 0x7fffe86d22e0] [0m[48;5;0m[38;5;196mbuffer underflow st=0 bufi=865 size=2504
[0mpts:367200 pts_time:4.08 dts:363600 dts_time:4.04 duration:0 duration_time:0 stream_index:0
[48;5;0m[38;5;213m[mpeg @ 0x7fffe86d22e0] [0m[48;5;0m[38;5;196mbuffer underflow st=0 bufi=393 size=1693
[0mpts:370800 pts_time:4.12 dts:367200 dts_time:4.08 duration:0 duration_time:0 stream_index:0
[48;5;0m[38;5;213m[mpeg @ 0x7fffe86d22e0] [0m[48;5;0m[38;5;196mbuffer underflow st=0 bufi=732 size=2848
[0m[48;5;0m[38;5;213m[mpeg @ 0x7fffe86d22e0] [0m[48;5;0m[38;5;196mbuffer underflow st=0 bufi=2773 size=2848
[0mpts:374400 pts_time:4.16 dts:370800 dts_time:4.12 duration:0 duration_time:0 stream_index:0
pts:378000 pts_time:4.2 dts:374400 dts_time:4.16 duration:0 duration_time:0 stream_index:0
[48;5;0m[38;5;213m[mpeg @ 0x7fffe86d22e0] [0m[48;5;0m[38;5;196mbuffer underflow st=0 bufi=198 size=2251
[0m[48;5;0m[38;5;213m[mpeg @ 0x7fffe86d22e0] [0m[48;5;0m[38;5;196mbuffer underflow st=0 bufi=2239 size=2251
[0mpts:381600 pts_time:4.24 dts:378000 dts_time:4.2 duration:0 duration_time:0 stream_index:0
[48;5;0m[38;5;213m[mpeg @ 0x7fffe86d22e0] [0m[48;5;0m[38;5;196mbuffer underflow st=0 bufi=2008 size=2064
[0mpts:385200 pts_time:4.28 dts:381600 dts_time:4.24 duration:0 duration_time:0 stream_index:0
[48;5;0m[38;5;213m[mpeg @ 0x7fffe86d22e0] [0m[48;5;0m[38;5;196mbuffer underflow st=0 bufi=1976 size=2348
[0mpts:388800 pts_time:4.32 dts:385200 dts_time:4.28 duration:0 duration_time:0 stream_index:0
[48;5;0m[38;5;213m[mpeg @ 0x7fffe86d22e0] [0m[48;5;0m[38;5;196mbuffer underflow st=0 bufi=1660 size=1925
[0mpts:392400 pts_time:4.36 dts:388800 dts_time:4.32 duration:0 duration_time:0 stream_index:0
[48;5;0m[38;5;213m[mpeg @ 0x7fffe86d22e0] [0m[48;5;0m[38;5;196mbuffer underflow st=0 bufi=1767 size=9992
[0m[48;5;0m[38;5;213m[mpeg @ 0x7fffe86d22e0] [0m[48;5;0m[38;5;196mbuffer underflow st=0 bufi=3808 size=9992
[0m[48;5;0m[38;5;213m[mpeg @ 0x7fffe86d22e0] [0m[48;5;0m[38;5;196mbuffer underflow st=0 bufi=5849 size=9992
[0m[48;5;0m[38;5;213m[mpeg @ 0x7fffe86d22e0] [0m[48;5;0m[38;5;196mbuffer underflow st=0 bufi=7890 size=9992
[0m[48;5;0m[38;5;213m[mpeg @ 0x7fffe86d22e0] [0m[48;5;0m[38;5;196mbuffer underflow st=0 bufi=9931 size=9992
[0mpts:396000 pts_time:4.4 dts:392400 dts_time:4.36 duration:0 duration_time:0 stream_index:0
[48;5;0m[38;5;213m[mpeg @ 0x7fffe86d22e0] [0m[48;5;0m[38;5;196mbuffer underflow st=0 bufi=1971 size=2697
[0mpts:399600 pts_time:4.44 dts:396000 dts_time:4.4 duration:0 duration_time:0 stream_index:0
[48;5;0m[38;5;213m[mpeg @ 0x7fffe86d22e0] [0m[48;5;0m[38;5;196mbuffer underflow st=0 bufi=1306 size=2015
[0mpts:403200 pts_time:4.48 dts:399600 dts_time:4.44 duration:0 duration_time:0 stream_index:0
[48;5;0m[38;5;213m[mpeg @ 0x7fffe86d22e0] [0m[48;5;0m[38;5;196mbuffer underflow st=0 bufi=1323 size=2631
[0mpts:406800 pts_time:4.52 dts:403200 dts_time:4.48 duration:0 duration_time:0 stream_index:0
[48;5;0m[38;5;213m[mpeg @ 0x7fffe86d22e0] [0m[48;5;0m[38;5;196mbuffer underflow st=0 bufi=724 size=1869
[0mpts:410400 pts_time:4.56 dts:406800 dts_time:4.52 duration:0 duration_time:0 stream_index:0
[48;5;0m[38;5;213m[mpeg @ 0x7fffe86d22e0] [0m[48;5;0m[38;5;196mbuffer underflow st=0 bufi=887 size=2033
[0mpts:414000 pts_time:4.6 dts:410400 dts_time:4.56 duration:0 duration_time:0 stream_index:0
[48;5;0m[38;5;213m[mpeg @ 0x7fffe86d22e0] [0m[48;5;0m[38;5;196mbuffer underflow st=0 bufi=886 size=2584
[0mpts:417600 pts_time:4.64 dts:414000 dts_time:4.6 duration:0 duration_time:0 stream_index:0
[48;5;0m[38;5;213m[mpeg @ 0x7fffe86d22e0] [0m[48;5;0m[38;5;196mbuffer underflow st=0 bufi=334 size=1958
[0mpts:421200 pts_time:4.68 dts:417600 dts_time:4.64 duration:0 duration_time:0 stream_index:0
[48;5;0m[38;5;213m[mpeg @ 0x7fffe86d22e0] [0m[48;5;0m[38;5;196mbuffer underflow st=0 bufi=408 size=2472
[0m[48;5;0m[38;5;213m[mpeg @ 0x7fffe86d22e0] [0m[48;5;0m[38;5;196mbuffer underflow st=0 bufi=2449 size=2472
[0mpts:424800 pts_time:4.72 dts:421200 dts_time:4.68 duration:0 duration_time:0 stream_index:0
pts:428400 pts_time:4.76 dts:424800 dts_time:4.72 duration:0 duration_time:0 stream_index:0
[48;5;0m[38;5;213m[mpeg @ 0x7fffe86d22e0] [0m[48;5;0m[38;5;196mbuffer underflow st=0 bufi=163 size=2521
[0m[48;5;0m[38;5;213m[mpeg @ 0x7fffe86d22e0] [0m[48;5;0m[38;5;196mbuffer underflow st=0 bufi=2204 size=2521
[0mpts:432000 pts_time:4.8 dts:428400 dts_time:4.76 duration:0 duration_time:0 stream_index:0
[48;5;0m[38;5;213m[mpeg @ 0x7fffe86d22e0] [0m[48;5;0m[38;5;196mbuffer underflow st=0 bufi=1715 size=1804
[0mpts:435600 pts_time:4.84 dts:432000 dts_time:4.8 duration:0 duration_time:0 stream_index:0
[48;5;0m[38;5;213m[mpeg @ 0x7fffe86d22e0] [0m[48;5;0m[38;5;196mbuffer underflow st=0 bufi=1943 size=10507
[0m[48;5;0m[38;5;213m[mpeg @ 0x7fffe86d22e0] [0m[48;5;0m[38;5;196mbuffer underflow st=0 bufi=3984 size=10507
[0m[48;5;0m[38;5;213m[mpeg @ 0x7fffe86d22e0] [0m[48;5;0m[38;5;196mbuffer underflow st=0 bufi=6025 size=10507
[0m[48;5;0m[38;5;213m[mpeg @ 0x7fffe86d22e0] [0m[48;5;0m[38;5;196mbuffer underflow st=0 bufi=8066 size=10507
[0m[48;5;0m[38;5;213m[mpeg @ 0x7fffe86d22e0] [0m[48;5;0m[38;5;196mbuffer underflow st=0 bufi=10107 size=10507
[0mpts:439200 pts_time:4.88 dts:435600 dts_time:4.84 duration:0 duration_time:0 stream_index:0
[48;5;0m[38;5;213m[mpeg @ 0x7fffe86d22e0] [0m[48;5;0m[38;5;196mbuffer underflow st=0 bufi=1632 size=2725
[0mpts:442800 pts_time:4.92 dts:439200 dts_time:4.88 duration:0 duration_time:0 stream_index:0
[48;5;0m[38;5;213m[mpeg @ 0x7fffe86d22e0] [0m[48;5;0m[38;5;196mbuffer underflow st=0 bufi=939 size=1853
[0mpts:446400 pts_time:4.96 dts:442800 dts_time:4.92 duration:0 duration_time:0 stream_index:0
[48;5;0m[38;5;213m[mpeg @ 0x7fffe86d22e0] [0m[48;5;0m[38;5;196mbuffer underflow st=0 bufi=1118 size=2598
[0mpts:450000 pts_time:5 dts:446400 dts_time:4.96 duration:0 duration_time:0 stream_index:0
[48;5;0m[38;5;213m[mpeg @ 0x7fffe86d22e0] [0m[48;5;0m[38;5;196mbuffer underflow st=0 bufi=552 size=2480
[0mpts:453600 pts_time:5.04 dts:450000 dts_time:5 duration:0 duration_time:0 stream_index:0
[48;5;0m[38;5;213m[mpeg @ 0x7fffe86d22e0] [0m[48;5;0m[38;5;196mbuffer underflow st=0 bufi=104 size=1698
[0mpts:457200 pts_time:5.08 dts:453600 dts_time:5.04 duration:0 duration_time:0 stream_index:0
[48;5;0m[38;5;213m[mpeg @ 0x7fffe86d22e0] [0m[48;5;0m[38;5;196mbuffer underflow st=0 bufi=438 size=2850
[0m[48;5;0m[38;5;213m[mpeg @ 0x7fffe86d22e0] [0m[48;5;0m[38;5;196mbuffer underflow st=0 bufi=2479 size=2850
[0mpts:460800 pts_time:5.12 dts:457200 dts_time:5.08 duration:0 duration_time:0 stream_index:0
pts:464400 pts_time:5.16 dts:460800 dts_time:5.12 duration:0 duration_time:0 stream_index:0
[48;5;0m[38;5;213m[mpeg @ 0x7fffe86d22e0] [0m[48;5;0m[38;5;196mbuffer underflow st=0 bufi=29 size=2663
[0m[48;5;0m[38;5;213m[mpeg @ 0x7fffe86d22e0] [0m[48;5;0m[38;5;196mbuffer underflow st=0 bufi=2070 size=2663
[0mpts:468000 pts_time:5.2 dts:464400 dts_time:5.16 duration:0 duration_time:0 stream_index:0
[48;5;0m[38;5;213m[mpeg @ 0x7fffe86d22e0] [0m[48;5;0m[38;5;196mbuffer underflow st=0 bufi=1439 size=2793
[0mpts:471600 pts_time:5.24 dts:468000 dts_time:5.2 duration:0 duration_time:0 stream_index:0
[48;5;0m[38;5;213m[mpeg @ 0x7fffe86d22e0] [0m[48;5;0m[38;5;196mbuffer underflow st=0 bufi=678 size=2595
[0mpts:475200 pts_time:5.28 dts:471600 dts_time:5.24 duration:0 duration_time:0 stream_index:0
[48;5;0m[38;5;213m[mpeg @ 0x7fffe86d22e0] [0m[48;5;0m[38;5;196mbuffer underflow st=0 bufi=115 size=2656
[0m[48;5;0m[38;5;213m[mpeg @ 0x7fffe86d22e0] [0m[48;5;0m[38;5;196mbuffer underflow st=0 bufi=2156 size=2656
[0mpts:478800 pts_time:5.32 dts:475200 dts_time:5.28 duration:0 duration_time:0 stream_index:0
[48;5;0m[38;5;213m[mpeg @ 0x7fffe86d22e0] [0m[48;5;0m[38;5;196mbuffer underflow st=0 bufi=1532 size=10299
[0m[48;5;0m[38;5;213m[mpeg @ 0x7fffe86d22e0] [0m[48;5;0m[38;5;196mbuffer underflow st=0 bufi=3573 size=10299
[0m[48;5;0m[38;5;213m[mpeg @ 0x7fffe86d22e0] [0m[48;5;0m[38;5;196mbuffer underflow st=0 bufi=5614 size=10299
[0m[48;5;0m[38;5;213m[mpeg @ 0x7fffe86d22e0] [0m[48;5;0m[38;5;196mbuffer underflow st=0 bufi=7655 size=10299
[0m[48;5;0m[38;5;213m[mpeg @ 0x7fffe86d22e0] [0m[48;5;0m[38;5;196mbuffer underflow st=0 bufi=9696 size=10299
[0mpts:482400 pts_time:5.36 dts:478800 dts_time:5.32 duration:0 duration_time:0 stream_index:0
[48;5;0m[38;5;213m[mpeg @ 0x7fffe86d22e0] [0m[48;5;0m[38;5;196mbuffer underflow st=0 bufi=1429 size=2983
[0mpts:486000 pts_time:5.4 dts:482400 dts_time:5.36 duration:0 duration_time:0 stream_index:0
[48;5;0m[38;5;213m[mpeg @ 0x7fffe86d22e0] [0m[48;5;0m[38;5;196mbuffer underflow st=0 bufi=478 size=2718
[0m[48;5;0m[38;5;213m[mpeg @ 0x7fffe86d22e0] [0m[48;5;0m[38;5;196mbuffer underflow st=0 bufi=2519 size=2718
[0mpts:489600 pts_time:5.44 dts:486000 dts_time:5.4 duration:0 duration_time:0 stream_index:0
[48;5;0m[38;5;213m[mpeg @ 0x7fffe86d22e0] [0m[48;5;0m[38;5;196mbuffer underflow st=0 bufi=1833 size=2840
[0mpts:493200 pts_time:5.48 dts:489600 dts_time:5.44 duration:0 duration_time:0 stream_index:0
[48;5;0m[38;5;213m[mpeg @ 0x7fffe86d22e0] [0m[48;5;0m[38;5;196mbuffer underflow st=0 bufi=1025 size=2009
[0mpts:496800 pts_time:5.52 dts:493200 dts_time:5.48 duration:0 duration_time:0 stream_index:0
[48;5;0m[38;5;213m[mpeg @ 0x7fffe86d22e0] [0m[48;5;0m[38;5;196mbuffer underflow st=0 bufi=1048 size=3111
[0m[48;5;0m[38;5;213m[mpeg @ 0x7fffe86d22e0] [0m[48;5;0m[38;5;196mbuffer underflow st=0 bufi=3089 size=3111
[0mpts:500400 pts_time:5.56 dts:496800 dts_time:5.52 duration:0 duration_time:0 stream_index:0
[48;5;0m[38;5;213m[mpeg @ 0x7fffe86d22e0] [0m[48;5;0m[38;5;196mbuffer underflow st=0 bufi=2010 size=2116
[0mpts:504000 pts_time:5.6 dts:500400 dts_time:5.56 duration:0 duration_time:0 stream_index:0
[48;5;0m[38;5;213m[mpeg @ 0x7fffe86d22e0] [0m[48;5;0m[38;5;196mbuffer underflow st=0 bufi=1926 size=2434
[0mpts:507600 pts_time:5.64 dts:504000 dts_time:5.6 duration:0 duration_time:0 stream_index:0
[48;5;0m[38;5;213m[mpeg @ 0x7fffe86d22e0] [0m[48;5;0m[38;5;196mbuffer underflow st=0 bufi=1497 size=2802
[0mpts:511200 pts_time:5.68 dts:507600 dts_time:5.64 duration:0 duration_time:0 stream_index:0
[48;5;0m[38;5;213m[mpeg @ 0x7fffe86d22e0] [0m[48;5;0m[38;5;196mbuffer underflow st=0 bufi=727 size=1990
[0mpts:514800 pts_time:5.72 dts:511200 dts_time:5.68 duration:0 duration_time:0 stream_index:0
[48;5;0m[38;5;213m[mpeg @ 0x7fffe86d22e0] [0m[48;5;0m[38;5;196mbuffer underflow st=0 bufi=769 size=2516
[0mpts:518400 pts_time:5.76 dts:514800 dts_time:5.72 duration:0 duration_time:0 stream_index:0
[48;5;0m[38;5;213m[mpeg @ 0x7fffe86d22e0] [0m[48;5;0m[38;5;196mbuffer underflow st=0 bufi=285 size=1847
[0mpts:522000 pts_time:5.8 dts:518400 dts_time:5.76 duration:0 duration_time:0 stream_index:0
[48;5;0m[38;5;213m[mpeg @ 0x7fffe86d22e0] [0m[48;5;0m[38;5;196mbuffer underflow st=0 bufi=470 size=10426
[0m[48;5;0m[38;5;213m[mpeg @ 0x7fffe86d22e0] [0m[48;5;0m[38;5;196mbuffer underflow st=0 bufi=2511 size=10426
[0m[48;5;0m[38;5;213m[mpeg @ 0x7fffe86d22e0] [0m[48;5;0m[38;5;196mbuffer underflow st=0 bufi=4552 size=10426
[0m[48;5;0m[38;5;213m[mpeg @ 0x7fffe86d22e0] [0m[48;5;0m[38;5;196mbuffer underflow st=0 bufi=6593 size=10426
[0m[48;5;0m[38;5;213m[mpeg @ 0x7fffe86d22e0] [0m[48;5;0m[38;5;196mbuffer underflow st=0 bufi=8634 size=10426
[0mpts:525600 pts_time:5.84 dts:522000 dts_time:5.8 duration:0 duration_time:0 stream_index:0
[48;5;0m[38;5;213m[mpeg @ 0x7fffe86d22e0] [0m[48;5;0m[38;5;196mbuffer underflow st=0 bufi=240 size=2742
[0m[48;5;0m[38;5;213m[mpeg @ 0x7fffe86d22e0] [0m[48;5;0m[38;5;196mbuffer underflow st=0 bufi=2281 size=2742
[0mpts:529200 pts_time:5.88 dts:525600 dts_time:5.84 duration:0 duration_time:0 stream_index:0
[48;5;0m[38;5;213m[mpeg @ 0x7fffe86d22e0] [0m[48;5;0m[38;5;196mbuffer underflow st=0 bufi=1571 size=1885
[0mpts:532800 pts_time:5.92 dts:529200 dts_time:5.88 duration:0 duration_time:0 stream_index:0
[48;5;0m[38;5;213m[mpeg @ 0x7fffe86d22e0] [0m[48;5;0m[38;5;196mbuffer underflow st=0 bufi=1718 size=2613
[0mpts:536400 pts_time:5.96 dts:532800 dts_time:5.92 duration:0 duration_time:0 stream_index:0
[48;5;0m[38;5;213m[mpeg @ 0x7fffe86d22e0] [0m[48;5;0m[38;5;196mbuffer underflow st=0 bufi=1137 size=2472
[0mpts:540000 pts_time:6 dts:536400 dts_time:5.96 duration:0 duration_time:0 stream_index:0
[48;5;0m[38;5;213m[mpeg @ 0x7fffe86d22e0] [0m[48;5;0m[38;5;196mbuffer underflow st=0 bufi=697 size=1690
[0mpts:543600 pts_time:6.04 dts:540000 dts_time:6 duration:0 duration_time:0 stream_index:0
[48;5;0m[38;5;213m[mpeg @ 0x7fffe86d22e0] [0m[48;5;0m[38;5;196mbuffer underflow st=0 bufi=1039 size=2869
[0mpts:547200 pts_time:6.08 dts:543600 dts_time:6.04 duration:0 duration_time:0 stream_index:0
[48;5;0m[38;5;213m[mpeg @ 0x7fffe86d22e0] [0m[48;5;0m[38;5;196mbuffer underflow st=0 bufi=202 size=1787
[0mpts:550800 pts_time:6.12 dts:547200 dts_time:6.08 duration:0 duration_time:0 stream_index:0
[48;5;0m[38;5;213m[mpeg @ 0x7fffe86d22e0] [0m[48;5;0m[38;5;196mbuffer underflow st=0 bufi=447 size=2289
[0mpts:554400 pts_time:6.16 dts:550800 dts_time:6.12 duration:0 duration_time:0 stream_index:0
[48;5;0m[38;5;213m[mpeg @ 0x7fffe86d22e0] [0m[48;5;0m[38;5;196mbuffer underflow st=0 bufi=190 size=2093
[0mpts:558000 pts_time:6.2 dts:554400 dts_time:6.16 duration:0 duration_time:0 stream_index:0
[48;5;0m[38;5;213m[mpeg @ 0x7fffe86d22e0] [0m[48;5;0m[38;5;196mbuffer underflow st=0 bufi=129 size=2341
[0m[48;5;0m[38;5;213m[mpeg @ 0x7fffe86d22e0] [0m[48;5;0m[38;5;196mbuffer underflow st=0 bufi=2170 size=2341
[0mpts:561600 pts_time:6.24 dts:558000 dts_time:6.2 duration:0 duration_time:0 stream_index:0
[48;5;0m[38;5;213m[mpeg @ 0x7fffe86d22e0] [0m[48;5;0m[38;5;196mbuffer underflow st=0 bufi=1861 size=1932
[0mpts:565200 pts_time:6.28 dts:561600 dts_time:6.24 duration:0 duration_time:0 stream_index:0
[48;5;0m[38;5;213m[mpeg @ 0x7fffe86d22e0] [0m[48;5;0m[38;5;196mbuffer underflow st=0 bufi=1961 size=9923
[0m[48;5;0m[38;5;213m[mpeg @ 0x7fffe86d22e0] [0m[48;5;0m[38;5;196mbuffer underflow st=0 bufi=4002 size=9923
[0m[48;5;0m[38;5;213m[mpeg @ 0x7fffe86d22e0] [0m[48;5;0m[38;5;196mbuffer underflow st=0 bufi=6043 size=9923
[0m[48;5;0m[38;5;213m[mpeg @ 0x7fffe86d22e0] [0m[48;5;0m[38;5;196mbuffer underflow st=0 bufi=8084 size=9923
[0mpts:568800 pts_time:6.32 dts:565200 dts_time:6.28 duration:0 duration_time:0 stream_index:0
[48;5;0m[38;5;213m[mpeg @ 0x7fffe86d22e0] [0m[48;5;0m[38;5;196mbuffer underflow st=0 bufi=193 size=2673
[0m[48;5;0m[38;5;213m[mpeg @ 0x7fffe86d22e0] [0m[48;5;0m[38;5;196mbuffer underflow st=0 bufi=2234 size=2673
[0mpts:572400 pts_time:6.36 dts:568800 dts_time:6.32 duration:0 duration_time:0 stream_index:0
[48;5;0m[38;5;213m[mpeg @ 0x7fffe86d22e0] [0m[48;5;0m[38;5;196mbuffer underflow st=0 bufi=1593 size=2015
[0mpts:576000 pts_time:6.4 dts:572400 dts_time:6.36 duration:0 duration_time:0 stream_index:0
[48;5;0m[38;5;213m[mpeg @ 0x7fffe86d22e0] [0m[48;5;0m[38;5;196mbuffer underflow st=0 bufi=1610 size=2639
[0mpts:579600 pts_time:6.44 dts:576000 dts_time:6.4 duration:0 duration_time:0 stream_index:0
[48;5;0m[38;5;213m[mpeg @ 0x7fffe86d22e0] [0m[48;5;0m[38;5;196mbuffer underflow st=0 bufi=1003 size=1854
[0mpts:583200 pts_time:6.48 dts:579600 dts_time:6.44 duration:0 duration_time:0 stream_index:0
[48;5;0m[38;5;213m[mpeg @ 0x7fffe86d22e0] [0m[48;5;0m[38;5;196mbuffer underflow st=0 bufi=1181 size=2003
[0mpts:586800 pts_time:6.52 dts:583200 dts_time:6.48 duration:0 duration_time:0 stream_index:0
[48;5;0m[38;5;213m[mpeg @ 0x7fffe86d22e0] [0m[48;5;0m[38;5;196mbuffer underflow st=0 bufi=1210 size=2577
[0mpts:590400 pts_time:6.56 dts:586800 dts_time:6.52 duration:0 duration_time:0 stream_index:0
[48;5;0m[38;5;213m[mpeg @ 0x7fffe86d22e0] [0m[48;5;0m[38;5;196mbuffer underflow st=0 bufi=665 size=1946
[0mpts:594000 pts_time:6.6 dts:590400 dts_time:6.56 duration:0 duration_time:0 stream_index:0
[48;5;0m[38;5;213m[mpeg @ 0x7fffe86d22e0] [0m[48;5;0m[38;5;196mbuffer underflow st=0 bufi=751 size=2473
[0mpts:597600 pts_time:6.64 dts:594000 dts_time:6.6 duration:0 duration_time:0 stream_index:0
[48;5;0m[38;5;213m[mpeg @ 0x7fffe86d22e0] [0m[48;5;0m[38;5;196mbuffer underflow st=0 bufi=310 size=1855
[0mpts:601200 pts_time:6.68 dts:597600 dts_time:6.64 duration:0 duration_time:0 stream_index:0
[48;5;0m[38;5;213m[mpeg @ 0x7fffe86d22e0] [0m[48;5;0m[38;5;196mbuffer underflow st=0 bufi=487 size=2542
[0m[48;5;0m[38;5;213m[mpeg @ 0x7fffe86d22e0] [0m[48;5;0m[38;5;196mbuffer underflow st=0 bufi=2528 size=2542
[0mpts:604800 pts_time:6.72 dts:601200 dts_time:6.68 duration:0 duration_time:0 stream_index:0
pts:608400 pts_time:6.76 dts:604800 dts_time:6.72 duration:0 duration_time:0 stream_index:0
[48;5;0m[38;5;213m[mpeg @ 0x7fffe86d22e0] [0m[48;5;0m[38;5;196mbuffer underflow st=0 bufi=287 size=10426
[0m[48;5;0m[38;5;213m[mpeg @ 0x7fffe86d22e0] [0m[48;5;0m[38;5;196mbuffer underflow st=0 bufi=2328 size=10426
[0m[48;5;0m[38;5;213m[mpeg @ 0x7fffe86d22e0] [0m[48;5;0m[38;5;196mbuffer underflow st=0 bufi=4369 size=10426
[0m[48;5;0m[38;5;213m[mpeg @ 0x7fffe86d22e0] [0m[48;5;0m[38;5;196mbuffer underflow st=0 bufi=6410 size=10426
[0m[48;5;0m[38;5;213m[mpeg @ 0x7fffe86d22e0] [0m[48;5;0m[38;5;196mbuffer underflow st=0 bufi=8451 size=10426
[0mpts:612000 pts_time:6.8 dts:608400 dts_time:6.76 duration:0 duration_time:0 stream_index:0
[48;5;0m[38;5;213m[mpeg @ 0x7fffe86d22e0] [0m[48;5;0m[38;5;196mbuffer underflow st=0 bufi=57 size=2709
[0m[48;5;0m[38;5;213m[mpeg @ 0x7fffe86d22e0] [0m[48;5;0m[38;5;196mbuffer underflow st=0 bufi=2098 size=2709
[0mpts:615600 pts_time:6.84 dts:612000 dts_time:6.8 duration:0 duration_time:0 stream_index:0
[48;5;0m[38;5;213m[mpeg @ 0x7fffe86d22e0] [0m[48;5;0m[38;5;196mbuffer underflow st=0 bufi=1421 size=1853
[0mpts:619200 pts_time:6.88 dts:615600 dts_time:6.84 duration:0 duration_time:0 stream_index:0
[48;5;0m[38;5;213m[mpeg @ 0x7fffe86d22e0] [0m[48;5;0m[38;5;196mbuffer underflow st=0 bufi=1600 size=2619
[0mpts:622800 pts_time:6.92 dts:619200 dts_time:6.88 duration:0 duration_time:0 stream_index:0
[48;5;0m[38;5;213m[mpeg @ 0x7fffe86d22e0] [0m[48;5;0m[38;5;196mbuffer underflow st=0 bufi=1013 size=2500
[0mpts:626400 pts_time:6.96 dts:622800 dts_time:6.92 duration:0 duration_time:0 stream_index:0
[48;5;0m[38;5;213m[mpeg @ 0x7fffe86d22e0] [0m[48;5;0m[38;5;196mbuffer underflow st=0 bufi=545 size=1693
[0mpts:630000 pts_time:7 dts:626400 dts_time:6.96 duration:0 duration_time:0 stream_index:0
[48;5;0m[38;5;213m[mpeg @ 0x7fffe86d22e0] [0m[48;5;0m[38;5;196mbuffer underflow st=0 bufi=884 size=2842
[0mpts:633600 pts_time:7.04 dts:630000 dts_time:7 duration:0 duration_time:0 stream_index:0
[48;5;0m[38;5;213m[mpeg @ 0x7fffe86d22e0] [0m[48;5;0m[38;5;196mbuffer underflow st=0 bufi=74 size=1625
[0mpts:637200 pts_time:7.08 dts:633600 dts_time:7.04 duration:0 duration_time:0 stream_index:0
[48;5;0m[38;5;213m[mpeg @ 0x7fffe86d22e0] [0m[48;5;0m[38;5;196mbuffer underflow st=0 bufi=481 size=2367
[0mpts:640800 pts_time:7.12 dts:637200 dts_time:7.08 duration:0 duration_time:0 stream_index:0
[48;5;0m[38;5;213m[mpeg @ 0x7fffe86d22e0] [0m[48;5;0m[38;5;196mbuffer underflow st=0 bufi=134 size=2062
[0mpts:644400 pts_time:7.16 dts:640800 dts_time:7.12 duration:0 duration_time:0 stream_index:0
[48;5;0m[38;5;213m[mpeg @ 0x7fffe86d22e0] [0m[48;5;0m[38;5;196mbuffer underflow st=0 bufi=104 size=2313
[0m[48;5;0m[38;5;213m[mpeg @ 0x7fffe86d22e0] [0m[48;5;0m[38;5;196mbuffer underflow st=0 bufi=2145 size=2313
[0mpts:648000 pts_time:7.2 dts:644400 dts_time:7.16 duration:0 duration_time:0 stream_index:0
[48;5;0m[38;5;213m[mpeg @ 0x7fffe86d22e0] [0m[48;5;0m[38;5;196mbuffer underflow st=0 bufi=1864 size=2355
[0mpts:651600 pts_time:7.24 dts:648000 dts_time:7.2 duration:0 duration_time:0 stream_index:0
[48;5;0m[38;5;213m[mpeg @ 0x7fffe86d22e0] [0m[48;5;0m[38;5;196mbuffer underflow st=0 bufi=1541 size=10329
[0m[48;5;0m[38;5;213m[mpeg @ 0x7fffe86d22e0] [0m[48;5;0m[38;5;196mbuffer underflow st=0 bufi=3582 size=10329
[0m[48;5;0m[38;5;213m[mpeg @ 0x7fffe86d22e0] [0m[48;5;0m[38;5;196mbuffer underflow st=0 bufi=5623 size=10329
[0m[48;5;0m[38;5;213m[mpeg @ 0x7fffe86d22e0] [0m[48;5;0m[38;5;196mbuffer underflow st=0 bufi=7664 size=10329
[0m[48;5;0m[38;5;213m[mpeg @ 0x7fffe86d22e0] [0m[48;5;0m[38;5;196mbuffer underflow st=0 bufi=9705 size=10329
[0mpts:655200 pts_time:7.28 dts:651600 dts_time:7.24 duration:0 duration_time:0 stream_index:0
[48;5;0m[38;5;213m[mpeg @ 0x7fffe86d22e0] [0m[48;5;0m[38;5;196mbuffer underflow st=0 bufi=1408 size=2988
[0mpts:658800 pts_time:7.32 dts:655200 dts_time:7.28 duration:0 duration_time:0 stream_index:0
[48;5;0m[38;5;213m[mpeg @ 0x7fffe86d22e0] [0m[48;5;0m[38;5;196mbuffer underflow st=0 bufi=452 size=2840
[0m[48;5;0m[38;5;213m[mpeg @ 0x7fffe86d22e0] [0m[48;5;0m[38;5;196mbuffer underflow st=0 bufi=2493 size=2840
[0mpts:662400 pts_time:7.36 dts:658800 dts_time:7.32 duration:0 duration_time:0 stream_index:0
[48;5;0m[38;5;213m[mpeg @ 0x7fffe86d22e0] [0m[48;5;0m[38;5;196mbuffer underflow st=0 bufi=1685 size=2956
[0mpts:666000 pts_time:7.4 dts:662400 dts_time:7.36 duration:0 duration_time:0 stream_index:0
[48;5;0m[38;5;213m[mpeg @ 0x7fffe86d22e0] [0m[48;5;0m[38;5;196mbuffer underflow st=0 bufi=761 size=1964
[0mpts:669600 pts_time:7.44 dts:666000 dts_time:7.4 duration:0 duration_time:0 stream_index:0
[48;5;0m[38;5;213m[mpeg @ 0x7fffe86d22e0] [0m[48;5;0m[38;5;196mbuffer underflow st=0 bufi=829 size=3091
[0m[48;5;0m[38;5;213m[mpeg @ 0x7fffe86d22e0] [0m[48;5;0m[38;5;196mbuffer underflow st=0 bufi=2870 size=3091
[0mpts:673200 pts_time:7.48 dts:669600 dts_time:7.44 duration:0 duration_time:0 stream_index:0
[48;5;0m[38;5;213m[mpeg @ 0x7fffe86d22e0] [0m[48;5;0m[38;5;196mbuffer underflow st=0 bufi=1811 size=2502
[0mpts:676800 pts_time:7.52 dts:673200 dts_time:7.48 duration:0 duration_time:0 stream_index:0
[48;5;0m[38;5;213m[mpeg @ 0x7fffe86d22e0] [0m[48;5;0m[38;5;196mbuffer underflow st=0 bufi=1341 size=2425
[0mpts:680400 pts_time:7.56 dts:676800 dts_time:7.52 duration:0 duration_time:0 stream_index:0
[48;5;0m[38;5;213m[mpeg @ 0x7fffe86d22e0] [0m[48;5;0m[38;5;196mbuffer underflow st=0 bufi=948 size=3339
[0m[48;5;0m[38;5;213m[mpeg @ 0x7fffe86d22e0] [0m[48;5;0m[38;5;196mbuffer underflow st=0 bufi=2989 size=3339
[0mpts:684000 pts_time:7.6 dts:680400 dts_time:7.56 duration:0 duration_time:0 stream_index:0
[48;5;0m[38;5;213m[mpeg @ 0x7fffe86d22e0] [0m[48;5;0m[38;5;196mbuffer underflow st=0 bufi=1682 size=2239
[0mpts:687600 pts_time:7.64 dts:684000 dts_time:7.6 duration:0 duration_time:0 stream_index:0
[48;5;0m[38;5;213m[mpeg @ 0x7fffe86d22e0] [0m[48;5;0m[38;5;196mbuffer underflow st=0 bufi=1475 size=3368
[0mpts:691200 pts_time:7.68 dts:687600 dts_time:7.64 duration:0 duration_time:0 stream_index:0
[48;5;0m[38;5;213m[mpeg @ 0x7fffe86d22e0] [0m[48;5;0m[38;5;196mbuffer underflow st=0 bufi=139 size=1853
[0mpts:694800 pts_time:7.72 dts:691200 dts_time:7.68 duration:0 duration_time:0 stream_index:0
[48;5;0m[38;5;213m[mpeg @ 0x7fffe86d22e0] [0m[48;5;0m[38;5;196mbuffer underflow st=0 bufi=318 size=10153
[0m[48;5;0m[38;5;213m[mpeg @ 0x7fffe86d22e0] [0m[48;5;0m[38;5;196mbuffer underflow st=0 bufi=2359 size=10153
[0m[48;5;0m[38;5;213m[mpeg @ 0x7fffe86d22e0] [0m[48;5;0m[38;5;196mbuffer underflow st=0 bufi=4400 size=10153
[0m[48;5;0m[38;5;213m[mpeg @ 0x7fffe86d22e0] [0m[48;5;0m[38;5;196mbuffer underflow st=0 bufi=6441 size=10153
[0m[48;5;0m[38;5;213m[mpeg @ 0x7fffe86d22e0] [0m[48;5;0m[38;5;196mbuffer underflow st=0 bufi=8482 size=10153
[0mpts:698400 pts_time:7.76 dts:694800 dts_time:7.72 duration:0 duration_time:0 stream_index:0
[48;5;0m[38;5;213m[mpeg @ 0x7fffe86d22e0] [0m[48;5;0m[38;5;196mbuffer underflow st=0 bufi=361 size=2283
[0mpts:702000 pts_time:7.8 dts:698400 dts_time:7.76 duration:0 duration_time:0 stream_index:0
[48;5;0m[38;5;213m[mpeg @ 0x7fffe86d22e0] [0m[48;5;0m[38;5;196mbuffer underflow st=0 bufi=110 size=1427
[0mpts:705600 pts_time:7.84 dts:702000 dts_time:7.8 duration:0 duration_time:0 stream_index:0
[48;5;0m[38;5;213m[mpeg @ 0x7fffe86d22e0] [0m[48;5;0m[38;5;196mbuffer underflow st=0 bufi=715 size=2308
[0mpts:709200 pts_time:7.88 dts:705600 dts_time:7.84 duration:0 duration_time:0 stream_index:0
[48;5;0m[38;5;213m[mpeg @ 0x7fffe86d22e0] [0m[48;5;0m[38;5;196mbuffer underflow st=0 bufi=439 size=2205
[0mpts:712800 pts_time:7.92 dts:709200 dts_time:7.88 duration:0 duration_time:0 stream_index:0
[48;5;0m[38;5;213m[mpeg @ 0x7fffe86d22e0] [0m[48;5;0m[38;5;196mbuffer underflow st=0 bufi=266 size=1381
[0mpts:716400 pts_time:7.96 dts:712800 dts_time:7.92 duration:0 duration_time:0 stream_index:0
[48;5;0m[38;5;213m[mpeg @ 0x7fffe86d22e0] [0m[48;5;0m[38;5;196mbuffer underflow st=0 bufi=917 size=2545
[0mpts:720000 pts_time:8 dts:716400 dts_time:7.96 duration:0 duration_time:0 stream_index:0
[48;5;0m[38;5;213m[mpeg @ 0x7fffe86d22e0] [0m[48;5;0m[38;5;196mbuffer underflow st=0 bufi=404 size=1561
[0mpts:723600 pts_time:8.04 dts:720000 dts_time:8 duration:0 duration_time:0 stream_index:0
[48;5;0m[38;5;213m[mpeg @ 0x7fffe86d22e0] [0m[48;5;0m[38;5;196mbuffer underflow st=0 bufi=875 size=2466
[0mpts:727200 pts_time:8.08 dts:723600 dts_time:8.04 duration:0 duration_time:0 stream_index:0
[48;5;0m[38;5;213m[mpeg @ 0x7fffe86d22e0] [0m[48;5;0m[38;5;196mbuffer underflow st=0 bufi=441 size=2185
[0mpts:730800 pts_time:8.12 dts:727200 dts_time:8.08 duration:0 duration_time:0 stream_index:0
[48;5;0m[38;5;213m[mpeg @ 0x7fffe86d22e0] [0m[48;5;0m[38;5;196mbuffer underflow st=0 bufi=288 size=2475
[0m[48;5;0m[38;5;213m[mpeg @ 0x7fffe86d22e0] [0m[48;5;0m[38;5;196mbuffer underflow st=0 bufi=2329 size=2475
[0mpts:734400 pts_time:8.16 dts:730800 dts_time:8.12 duration:0 duration_time:0 stream_index:0
[48;5;0m[38;5;213m[mpeg @ 0x7fffe86d22e0] [0m[48;5;0m[38;5;196mbuffer underflow st=0 bufi=1886 size=1936
[0mpts:738000 pts_time:8.2 dts:734400 dts_time:8.16 duration:0 duration_time:0 stream_index:0
[48;5;0m[38;5;213m[mpeg @ 0x7fffe86d22e0] [0m[48;5;0m[38;5;196mbuffer underflow st=0 bufi=1982 size=9992
[0m[48;5;0m[38;5;213m[mpeg @ 0x7fffe86d22e0] [0m[48;5;0m[38;5;196mbuffer underflow st=0 bufi=4023 size=9992
[0m[48;5;0m[38;5;213m[mpeg @ 0x7fffe86d22e0] [0m[48;5;0m[38;5;196mbuffer underflow st=0 bufi=6064 size=9992
[0m[48;5;0m[38;5;213m[mpeg @ 0x7fffe86d22e0] [0m[48;5;0m[38;5;196mbuffer underflow st=0 bufi=8105 size=9992
[0mpts:741600 pts_time:8.24 dts:738000 dts_time:8.2 duration:0 duration_time:0 stream_index:0
[48;5;0m[38;5;213m[mpeg @ 0x7fffe86d22e0] [0m[48;5;0m[38;5;196mbuffer underflow st=0 bufi=145 size=2697
[0m[48;5;0m[38;5;213m[mpeg @ 0x7fffe86d22e0] [0m[48;5;0m[38;5;196mbuffer underflow st=0 bufi=2186 size=2697
[0mpts:745200 pts_time:8.28 dts:741600 dts_time:8.24 duration:0 duration_time:0 stream_index:0
[48;5;0m[38;5;213m[mpeg @ 0x7fffe86d22e0] [0m[48;5;0m[38;5;196mbuffer underflow st=0 bufi=1521 size=2015
[0mpts:748800 pts_time:8.32 dts:745200 dts_time:8.28 duration:0 duration_time:0 stream_index:0
[48;5;0m[38;5;213m[mpeg @ 0x7fffe86d22e0] [0m[48;5;0m[38;5;196mbuffer underflow st=0 bufi=1538 size=2628
[0mpts:752400 pts_time:8.36 dts:748800 dts_time:8.32 duration:0 duration_time:0 stream_index:0
[48;5;0m[38;5;213m[mpeg @ 0x7fffe86d22e0] [0m[48;5;0m[38;5;196mbuffer underflow st=0 bufi=942 size=2005
[0mpts:756000 pts_time:8.4 dts:752400 dts_time:8.36 duration:0 duration_time:0 stream_index:0
[48;5;0m[38;5;213m[mpeg @ 0x7fffe86d22e0] [0m[48;5;0m[38;5;196mbuffer underflow st=0 bufi=969 size=2062
[0mpts:759600 pts_time:8.44 dts:756000 dts_time:8.4 duration:0 duration_time:0 stream_index:0
[48;5;0m[38;5;213m[mpeg @ 0x7fffe86d22e0] [0m[48;5;0m[38;5;196mbuffer underflow st=0 bufi=939 size=2553
[0mpts:763200 pts_time:8.48 dts:759600 dts_time:8.44 duration:0 duration_time:0 stream_index:0
[48;5;0m[38;5;213m[mpeg @ 0x7fffe86d22e0] [0m[48;5;0m[38;5;196mbuffer underflow st=0 bufi=418 size=1877
[0mpts:766800 pts_time:8.52 dts:763200 dts_time:8.48 duration:0 duration_time:0 stream_index:0
[48;5;0m[38;5;213m[mpeg @ 0x7fffe86d22e0] [0m[48;5;0m[38;5;196mbuffer underflow st=0 bufi=561 size=2403
[0mpts:770400 pts_time:8.56 dts:766800 dts_time:8.52 duration:0 duration_time:0 stream_index:0
[48;5;0m[38;5;213m[mpeg @ 0x7fffe86d22e0] [0m[48;5;0m[38;5;196mbuffer underflow st=0 bufi=190 size=1920
[0mpts:774000 pts_time:8.6 dts:770400 dts_time:8.56 duration:0 duration_time:0 stream_index:0
[48;5;0m[38;5;213m[mpeg @ 0x7fffe86d22e0] [0m[48;5;0m[38;5;196mbuffer underflow st=0 bufi=302 size=2522
[0m[48;5;0m[38;5;213m[mpeg @ 0x7fffe86d22e0] [0m[48;5;0m[38;5;196mbuffer underflow st=0 bufi=2343 size=2522
[0mpts:777600 pts_time:8.64 dts:774000 dts_time:8.6 duration:0 duration_time:0 stream_index:0
pts:781200 pts_time:8.68 dts:777600 dts_time:8.64 duration:0 duration_time:0 stream_index:0
[48;5;0m[38;5;213m[mpeg @ 0x7fffe86d22e0] [0m[48;5;0m[38;5;196mbuffer underflow st=0 bufi=59 size=10478
[0m[48;5;0m[38;5;213m[mpeg @ 0x7fffe86d22e0] [0m[48;5;0m[38;5;196mbuffer underflow st=0 bufi=2100 size=10478
[0m[48;5;0m[38;5;213m[mpeg @ 0x7fffe86d22e0] [0m[48;5;0m[38;5;196mbuffer underflow st=0 bufi=4141 size=10478
[0m[48;5;0m[38;5;213m[mpeg @ 0x7fffe86d22e0] [0m[48;5;0m[38;5;196mbuffer underflow st=0 bufi=6182 size=10478
[0m[48;5;0m[38;5;213m[mpeg @ 0x7fffe86d22e0] [0m[48;5;0m[38;5;196mbuffer underflow st=0 bufi=8223 size=10478
[0m[48;5;0m[38;5;213m[mpeg @ 0x7fffe86d22e0] [0m[48;5;0m[38;5;196mbuffer underflow st=0 bufi=10264 size=10478
[0mpts:784800 pts_time:8.72 dts:781200 dts_time:8.68 duration:0 duration_time:0 stream_index:0
[48;5;0m[38;5;213m[mpeg @ 0x7fffe86d22e0] [0m[48;5;0m[38;5;196mbuffer underflow st=0 bufi=1818 size=2718
[0mpts:788400 pts_time:8.76 dts:784800 dts_time:8.72 duration:0 duration_time:0 stream_index:0
[48;5;0m[38;5;213m[mpeg @ 0x7fffe86d22e0] [0m[48;5;0m[38;5;196mbuffer underflow st=0 bufi=1132 size=1854
[0mpts:792000 pts_time:8.8 dts:788400 dts_time:8.76 duration:0 duration_time:0 stream_index:0
[48;5;0m[38;5;213m[mpeg @ 0x7fffe86d22e0] [0m[48;5;0m[38;5;196mbuffer underflow st=0 bufi=1310 size=2617
[0mpts:795600 pts_time:8.84 dts:792000 dts_time:8.8 duration:0 duration_time:0 stream_index:0
[48;5;0m[38;5;213m[mpeg @ 0x7fffe86d22e0] [0m[48;5;0m[38;5;196mbuffer underflow st=0 bufi=725 size=2632
[0mpts:799200 pts_time:8.88 dts:795600 dts_time:8.84 duration:0 duration_time:0 stream_index:0
[48;5;0m[38;5;213m[mpeg @ 0x7fffe86d22e0] [0m[48;5;0m[38;5;196mbuffer underflow st=0 bufi=125 size=1702
[0mpts:802800 pts_time:8.92 dts:799200 dts_time:8.88 duration:0 duration_time:0 stream_index:0
[48;5;0m[38;5;213m[mpeg @ 0x7fffe86d22e0] [0m[48;5;0m[38;5;196mbuffer underflow st=0 bufi=455 size=2839
[0m[48;5;0m[38;5;213m[mpeg @ 0x7fffe86d22e0] [0m[48;5;0m[38;5;196mbuffer underflow st=0 bufi=2496 size=2839
[0mpts:806400 pts_time:8.96 dts:802800 dts_time:8.92 duration:0 duration_time:0 stream_index:0
pts:810000 pts_time:9 dts:806400 dts_time:8.96 duration:0 duration_time:0 stream_index:0
[48;5;0m[38;5;213m[mpeg @ 0x7fffe86d22e0] [0m[48;5;0m[38;5;196mbuffer underflow st=0 bufi=46 size=2303
[0m[48;5;0m[38;5;213m[mpeg @ 0x7fffe86d22e0] [0m[48;5;0m[38;5;196mbuffer underflow st=0 bufi=2087 size=2303
[0mpts:813600 pts_time:9.04 dts:810000 dts_time:9 duration:0 duration_time:0 stream_index:0
[48;5;0m[38;5;213m[mpeg @ 0x7fffe86d22e0] [0m[48;5;0m[38;5;196mbuffer underflow st=0 bufi=1816 size=2162
[0mpts:817200 pts_time:9.08 dts:813600 dts_time:9.04 duration:0 duration_time:0 stream_index:0
[48;5;0m[38;5;213m[mpeg @ 0x7fffe86d22e0] [0m[48;5;0m[38;5;196mbuffer underflow st=0 bufi=1686 size=2329
[0mpts:820800 pts_time:9.12 dts:817200 dts_time:9.08 duration:0 duration_time:0 stream_index:0
[48;5;0m[38;5;213m[mpeg @ 0x7fffe86d22e0] [0m[48;5;0m[38;5;196mbuffer underflow st=0 bufi=1389 size=2121
[0mpts:824400 pts_time:9.16 dts:820800 dts_time:9.12 duration:0 duration_time:0 stream_index:0
[48;5;0m[38;5;213m[mpeg @ 0x7fffe86d22e0] [0m[48;5;0m[38;5;196mbuffer underflow st=0 bufi=1300 size=9925
[0m[48;5;0m[38;5;213m[mpeg @ 0x7fffe86d22e0] [0m[48;5;0m[38;5;196mbuffer underflow st=0 bufi=3341 size=9925
[0m[48;5;0m[38;5;213m[mpeg @ 0x7fffe86d22e0] [0m[48;5;0m[38;5;196mbuffer underflow st=0 bufi=5382 size=9925
[0m[48;5;0m[38;5;213m[mpeg @ 0x7fffe86d22e0] [0m[48;5;0m[38;5;196mbuffer underflow st=0 bufi=7423 size=9925
[0m[48;5;0m[38;5;213m[mpeg @ 0x7fffe86d22e0] [0m[48;5;0m[38;5;196mbuffer underflow st=0 bufi=9464 size=9925
[0mpts:828000 pts_time:9.2 dts:824400 dts_time:9.16 duration:0 duration_time:0 stream_index:0
[48;5;0m[38;5;213m[mpeg @ 0x7fffe86d22e0] [0m[48;5;0m[38;5;196mbuffer underflow st=0 bufi=1571 size=2683
[0mpts:831600 pts_time:9.24 dts:828000 dts_time:9.2 duration:0 duration_time:0 stream_index:0
[48;5;0m[38;5;213m[mpeg @ 0x7fffe86d22e0] [0m[48;5;0m[38;5;196mbuffer underflow st=0 bufi=920 size=2646
[0mpts:835200 pts_time:9.28 dts:831600 dts_time:9.24 duration:0 duration_time:0 stream_index:0
[48;5;0m[38;5;213m[mpeg @ 0x7fffe86d22e0] [0m[48;5;0m[38;5;196mbuffer underflow st=0 bufi=306 size=2824
[0m[48;5;0m[38;5;213m[mpeg @ 0x7fffe86d22e0] [0m[48;5;0m[38;5;196mbuffer underflow st=0 bufi=2347 size=2824
[0mpts:838800 pts_time:9.32 dts:835200 dts_time:9.28 duration:0 duration_time:0 stream_index:0
[48;5;0m[38;5;213m[mpeg @ 0x7fffe86d22e0] [0m[48;5;0m[38;5;196mbuffer underflow st=0 bufi=1555 size=2018
[0mpts:842400 pts_time:9.36 dts:838800 dts_time:9.32 duration:0 duration_time:0 stream_index:0
[48;5;0m[38;5;213m[mpeg @ 0x7fffe86d22e0] [0m[48;5;0m[38;5;196mbuffer underflow st=0 bufi=1569 size=3123
[0mpts:846000 pts_time:9.4 dts:842400 dts_time:9.36 duration:0 duration_time:0 stream_index:0
[48;5;0m[38;5;213m[mpeg @ 0x7fffe86d22e0] [0m[48;5;0m[38;5;196mbuffer underflow st=0 bufi=478 size=2405
[0mpts:849600 pts_time:9.44 dts:846000 dts_time:9.4 duration:0 duration_time:0 stream_index:0
[48;5;0m[38;5;213m[mpeg @ 0x7fffe86d22e0] [0m[48;5;0m[38;5;196mbuffer underflow st=0 bufi=105 size=2402
[0m[48;5;0m[38;5;213m[mpeg @ 0x7fffe86d22e0] [0m[48;5;0m[38;5;196mbuffer underflow st=0 bufi=2146 size=2402
[0mpts:853200 pts_time:9.48 dts:849600 dts_time:9.44 duration:0 duration_time:0 stream_index:0
[48;5;0m[38;5;213m[mpeg @ 0x7fffe86d22e0] [0m[48;5;0m[38;5;196mbuffer underflow st=0 bufi=1776 size=3183
[0mpts:856800 pts_time:9.52 dts:853200 dts_time:9.48 duration:0 duration_time:0 stream_index:0
[48;5;0m[38;5;213m[mpeg @ 0x7fffe86d22e0] [0m[48;5;0m[38;5;196mbuffer underflow st=0 bufi=625 size=2317
[0mpts:860400 pts_time:9.56 dts:856800 dts_time:9.52 duration:0 duration_time:0 stream_index:0
[48;5;0m[38;5;213m[mpeg @ 0x7fffe86d22e0] [0m[48;5;0m[38;5;196mbuffer underflow st=0 bufi=340 size=3224
[0m[48;5;0m[38;5;213m[mpeg @ 0x7fffe86d22e0] [0m[48;5;0m[38;5;196mbuffer underflow st=0 bufi=2381 size=3224
[0mpts:864000 pts_time:9.6 dts:860400 dts_time:9.56 duration:0 duration_time:0 stream_index:0
[48;5;0m[38;5;213m[mpeg @ 0x7fffe86d22e0] [0m[48;5;0m[38;5;196mbuffer underflow st=0 bufi=1189 size=2003
[0mpts:867600 pts_time:9.64 dts:864000 dts_time:9.6 duration:0 duration_time:0 stream_index:0
[48;5;0m[38;5;213m[mpeg @ 0x7fffe86d22e0] [0m[48;5;0m[38;5;196mbuffer underflow st=0 bufi=1218 size=10775
[0m[48;5;0m[38;5;213m[mpeg @ 0x7fffe86d22e0] [0m[48;5;0m[38;5;196mbuffer underflow st=0 bufi=3259 size=10775
[0m[48;5;0m[38;5;213m[mpeg @ 0x7fffe86d22e0] [0m[48;5;0m[38;5;196mbuffer underflow st=0 bufi=5300 size=10775
[0m[48;5;0m[38;5;213m[mpeg @ 0x7fffe86d22e0] [0m[48;5;0m[38;5;196mbuffer underflow st=0 bufi=7341 size=10775
[0m[48;5;0m[38;5;213m[mpeg @ 0x7fffe86d22e0] [0m[48;5;0m[38;5;196mbuffer underflow st=0 bufi=9382 size=10775
[0mpts:871200 pts_time:9.68 dts:867600 dts_time:9.64 duration:0 duration_time:0 stream_index:0
[48;5;0m[38;5;213m[mpeg @ 0x7fffe86d22e0] [0m[48;5;0m[38;5;196mbuffer underflow st=0 bufi=639 size=3286
[0m[48;5;0m[38;5;213m[mpeg @ 0x7fffe86d22e0] [0m[48;5;0m[38;5;196mbuffer underflow st=0 bufi=2680 size=3286
[0mpts:874800 pts_time:9.72 dts:871200 dts_time:9.68 duration:0 duration_time:0 stream_index:0
[48;5;0m[38;5;213m[mpeg @ 0x7fffe86d22e0] [0m[48;5;0m[38;5;196mbuffer underflow st=0 bufi=1426 size=2403
[0mpts:878400 pts_time:9.76 dts:874800 dts_time:9.72 duration:0 duration_time:0 stream_index:0
[48;5;0m[38;5;213m[mpeg @ 0x7fffe86d22e0] [0m[48;5;0m[38;5;196mbuffer underflow st=0 bufi=1055 size=2738
[0mpts:882000 pts_time:9.8 dts:878400 dts_time:9.76 duration:0 duration_time:0 stream_index:0
[48;5;0m[38;5;213m[mpeg @ 0x7fffe86d22e0] [0m[48;5;0m[38;5;196mbuffer underflow st=0 bufi=349 size=2278
[0mpts:885600 pts_time:9.84 dts:882000 dts_time:9.8 duration:0 duration_time:0 stream_index:0
[48;5;0m[38;5;213m[mpeg @ 0x7fffe86d22e0] [0m[48;5;0m[38;5;196mbuffer underflow st=0 bufi=103 size=1992
[0mpts:889200 pts_time:9.88 dts:885600 dts_time:9.84 duration:0 duration_time:0 stream_index:0
[48;5;0m[38;5;213m[mpeg @ 0x7fffe86d22e0] [0m[48;5;0m[38;5;196mbuffer underflow st=0 bufi=131 size=2776
[0m[48;5;0m[38;5;213m[mpeg @ 0x7fffe86d22e0] [0m[48;5;0m[38;5;196mbuffer underflow st=0 bufi=2172 size=2776
[0mpts:892800 pts_time:9.92 dts:889200 dts_time:9.88 duration:0 duration_time:0 stream_index:0
[48;5;0m[38;5;213m[mpeg @ 0x7fffe86d22e0] [0m[48;5;0m[38;5;196mbuffer underflow st=0 bufi=1428 size=1696
[0mpts:896400 pts_time:9.96 dts:892800 dts_time:9.92 duration:0 duration_time:0 stream_index:0
[48;5;0m[38;5;213m[mpeg @ 0x7fffe86d22e0] [0m[48;5;0m[38;5;196mbuffer underflow st=0 bufi=1764 size=2344
[0mpts:900000 pts_time:10 dts:896400 dts_time:9.96 duration:0 duration_time:0 stream_index:0
[48;5;0m[38;5;213m[mpeg @ 0x7fffe86d22e0] [0m[48;5;0m[38;5;196mbuffer underflow st=0 bufi=1452 size=2032
[0m